<?xml version="1.0" encoding="utf-8"?>
<!-- Generator: Adobe Illustrator 23.0.3, SVG Export Plug-In . SVG Version: 6.00 Build 0)  -->
<svg version="1.1" id="Capa_1" xmlns="http://www.w3.org/2000/svg" xmlns:xlink="http://www.w3.org/1999/xlink" x="0px" y="0px"
	 viewBox="0 0 755 581" style="enable-background:new 0 0 755 581;" xml:space="preserve">
<style type="text/css">
	.st0{fill:#3555A2;}
	.st1{fill:#1B3555;}
	.st2{fill:#53D8E3;}
	.st3{fill:#18A8C9;}
	.st4{fill:#ECF6FD;}
	.st5{fill:#EAF6FF;}
	.st6{fill:#D6E8FE;}
</style>
<path class="st0" d="M602.9,371.1l-352.1,62.1c-21.8,3.8-42.5-10.7-46.3-32.4l-38.8-219.8c-3.8-21.8,10.7-42.5,32.4-46.3l352.1-62.1
	c21.8-3.8,42.5,10.7,46.3,32.4l38.8,219.8C639.2,346.5,624.7,367.3,602.9,371.1L602.9,371.1z"/>
<path class="st1" d="M550.3,72.5l-176.1,31l52.7,298.6l176.1-31c21.8-3.8,36.3-24.6,32.4-46.3L596.6,105
	C592.8,83.2,572,68.7,550.3,72.5L550.3,72.5z"/>
<path class="st2" d="M514,506.1H164c-22.1,0-40-17.9-40-40V248.4c0-22.1,17.9-40,40-40h350c22.1,0,40,17.9,40,40v217.7
	C554,488.2,536.1,506.1,514,506.1z"/>
<path class="st3" d="M514,208.4H339v297.7h175c22.1,0,40-17.9,40-40V248.4C554,226.3,536.1,208.4,514,208.4L514,208.4z"/>
<path class="st4" d="M124,276.4h430v68H124V276.4z"/>
<path class="st5" d="M243.1,440.1H175c-8.3,0-15,6.7-15,15s6.7,15,15,15h68.1c8.3,0,15-6.7,15-15S251.4,440.1,243.1,440.1z"/>
<path class="st6" d="M339,276.4h215v68H339V276.4z"/>
</svg>
