<?xml version="1.0" encoding="utf-8"?>
<!-- Generator: Adobe Illustrator 25.1.0, SVG Export Plug-In . SVG Version: 6.00 Build 0)  -->
<svg version="1.1" id="Layer_1" xmlns="http://www.w3.org/2000/svg" xmlns:xlink="http://www.w3.org/1999/xlink" x="0px" y="0px"
	 viewBox="0 0 464 464" style="enable-background:new 0 0 464 464;" xml:space="preserve">
<style type="text/css">
	.st0{fill:#FFDBA9;}
	.st1{fill:#FFA91F;}
	.st2{fill:#53DBC7;}
	.st3{fill:#1CCBC4;}
</style>
<path class="st0" d="M424,84c-4.4,0-8,3.6-8,8v28.7l-8,8V124c0-8.8-7.2-16-16-16h-8V92c0-4.4-3.6-8-8-8h-32c-4.4,0-8,3.6-8,8v28.7
	l-8,8V124c0-8.8-7.2-16-16-16h-8V92c0-4.4-3.6-8-8-8H40c-22.1,0-40,17.9-40,40v200c0,22.1,17.9,40,40,40c4.4,0,8-3.6,8-8v-28.7l8-8
	v4.7c0,8.8,7.2,16,16,16h8v16c0,4.4,3.6,8,8,8h32c4.4,0,8-3.6,8-8v-28.7l8-8v4.7c0,8.8,7.2,16,16,16h8v16c0,4.4,3.6,8,8,8h2.7
	c6.4,0,12.6,2.6,17.1,7.2l27.2,25.8c4.5,4.5,10.5,7,16.8,7.1c6.3,0,12.4-2.5,16.9-6.9l32.1-30.7c1.5-1.5,3.6-2.4,5.7-2.4H424
	c22.1,0,40-17.9,40-40V124C464,101.9,446.1,84,424,84z"/>
<path class="st1" d="M292.9,194.9c-0.9-2.9-3.4-5-6.5-5.4l-32.6-4.8l-14.6-29.5c-1.5-2.5-4.2-4.1-7.2-4.1c-2.9,0-5.7,1.6-7.2,4.1
	l-14.6,29.6l-32.6,4.8c-3,0.4-5.5,2.6-6.5,5.4s-0.2,6.1,2,8.2l23.6,23l-5.6,32.5c-0.5,3,0.7,6,3.2,7.8c2.5,1.8,5.7,2,8.4,0.6
	l29.2-15.3l29.2,15.3c2.7,1.4,6,1.2,8.4-0.6c2.5-1.8,3.7-4.8,3.2-7.8l-5.6-32.5l23.6-23C293,201,293.8,197.8,292.9,194.9z"/>
<g>
	<path class="st2" d="M336,60h-32c-8.8,0-16,7.2-16,16v32c0,8.8,7.2,16,16,16h8v24c0,3.2,1.9,6.2,4.9,7.4c1,0.4,2,0.6,3.1,0.6
		c2.1,0,4.2-0.8,5.7-2.3l24-24c1.5-1.5,2.3-3.5,2.3-5.7V76C352,67.2,344.8,60,336,60z"/>
	<path class="st2" d="M416,60h-32c-8.8,0-16,7.2-16,16v32c0,8.8,7.2,16,16,16h8v24c0,3.2,1.9,6.2,4.9,7.4c1,0.4,2,0.6,3.1,0.6
		c2.1,0,4.2-0.8,5.7-2.3l24-24c1.5-1.5,2.3-3.5,2.3-5.7V76C432,67.2,424.8,60,416,60z"/>
	<path class="st2" d="M160,324h-8v-24c0-3.2-1.9-6.2-4.9-7.4s-6.4-0.6-8.7,1.7l-24,24c-1.5,1.5-2.3,3.5-2.3,5.7v48
		c0,8.8,7.2,16,16,16h32c8.8,0,16-7.2,16-16v-32C176,331.2,168.8,324,160,324z"/>
	<path class="st2" d="M80,324h-8v-24c0-3.2-1.9-6.2-4.9-7.4s-6.4-0.6-8.7,1.7l-24,24c-1.5,1.5-2.3,3.5-2.3,5.7v48
		c0,8.8,7.2,16,16,16h32c8.8,0,16-7.2,16-16v-32C96,331.2,88.8,324,80,324z"/>
</g>
<path class="st1" d="M165.6,207.7l-22.1-3.2l-9.9-20c-1.4-2.7-4.1-4.5-7.2-4.5c-3,0-5.8,1.7-7.2,4.5l-9.9,20l-22.1,3.2
	c-3,0.5-5.5,2.6-6.4,5.4s-0.2,6,2,8.2l16,15.6L95,259c-0.5,3,0.7,6,3.2,7.8s5.7,2,8.4,0.6l19.8-10.4l19.8,10.4
	c2.7,1.4,6,1.2,8.4-0.6c2.5-1.8,3.7-4.8,3.2-7.8l-3.8-22l16-15.6c2.2-2.1,2.9-5.3,2-8.2C171,210.3,168.6,208.2,165.6,207.7
	L165.6,207.7z"/>
<path class="st1" d="M383.6,213.2c-0.9-2.9-3.4-5-6.5-5.4l-22.1-3.2l-9.9-20c-1.3-2.7-4.1-4.5-7.2-4.5s-5.8,1.7-7.2,4.5l-9.9,20
	l-22.1,3.2c-3,0.4-5.5,2.6-6.4,5.4c-0.9,2.9-0.2,6,2,8.2l16,15.6l-3.8,22c-0.5,3,0.7,6,3.2,7.8c2.5,1.8,5.7,2,8.4,0.6l19.8-10.4
	l19.8,10.4c2.7,1.4,6,1.2,8.4-0.6s3.7-4.8,3.2-7.8l-3.7-22l16-15.6C383.8,219.2,384.6,216.1,383.6,213.2z"/>
<path class="st3" d="M184,148H88c-4.4,0-8-3.6-8-8s3.6-8,8-8h96c4.4,0,8,3.6,8,8S188.4,148,184,148z"/>
<path class="st3" d="M376,316h-96c-4.4,0-8-3.6-8-8s3.6-8,8-8h96c4.4,0,8,3.6,8,8S380.4,316,376,316z"/>
</svg>
