<?xml version="1.0" encoding="utf-8"?>
<!-- Generator: Adobe Illustrator 23.0.3, SVG Export Plug-In . SVG Version: 6.00 Build 0)  -->
<svg version="1.1" id="Layer_1" xmlns="http://www.w3.org/2000/svg" xmlns:xlink="http://www.w3.org/1999/xlink" x="0px" y="0px"
	 viewBox="0 0 512 511" style="enable-background:new 0 0 512 511;" xml:space="preserve">
<style type="text/css">
	.st0{fill:#8F8FC6;}
	.st1{fill:#A3A3D8;}
	.st2{fill:#753863;}
	.st3{fill:#633156;}
	.st4{fill:#D7D0EE;}
	.st5{fill:#C9C5DD;}
</style>
<path class="st0" d="M82.4,392.3c-4.6,0-8.3-3.7-8.3-8.3v-14.5c0-8.8,3.4-17.1,9.7-23.4l50.6-50.6c3.2-3.2,8.5-3.2,11.7,0
	s3.2,8.5,0,11.7l-50.6,50.6c-3.1,3.1-4.8,7.3-4.8,11.7V384C90.7,388.6,87,392.3,82.4,392.3z"/>
<path class="st1" d="M140.3,425.4c-13.9,0-24.8-14.5-24.8-33.1c0-13.4,4.3-30.7,8.5-47.5c3.9-15.8,8-32.1,8-43.5
	c0-4.6,3.7-8.3,8.3-8.3s8.3,3.7,8.3,8.3c0,11.4,4.1,27.7,8,43.5c4.2,16.7,8.5,34.1,8.5,47.5C165.1,410.9,154.2,425.4,140.3,425.4z
	 M140.3,347.9c-0.1,0.3-0.2,0.7-0.3,1c-3.9,15.8-8,32.1-8,43.5c0,10.1,4.9,16.5,8.3,16.5c3.4,0,8.3-6.4,8.3-16.5
	c0-11.4-4.1-27.7-8-43.5C140.4,348.5,140.4,348.2,140.3,347.9z"/>
<path class="st0" d="M132,260.1v41.3c0,4.6,3.7,8.3,8.3,8.3h231.4c4.6,0,8.3-3.7,8.3-8.3v-41.3H132z"/>
<path class="st1" d="M214.7,293.1H380V260H132v41.3c0,4.6,3.7,8.3,8.3,8.3h57.9C198.1,300.5,205.5,293.1,214.7,293.1z"/>
<path class="st2" d="M256,86.5C118.3,86.5,6,167.1,0,268.1c-0.3,4.7,3.6,8.5,8.3,8.5h495.4c4.7,0,8.5-3.9,8.3-8.5
	C506,167.1,393.7,86.5,256,86.5z"/>
<path class="st3" d="M130.9,260.1c-3.8,0-6.9-3.9-6.7-8.5c3.5-73.6,52.5-136.2,121.7-164.9C112.9,90.5,5.9,169.5,0,268.1
	c-0.3,4.7,3.6,8.5,8.3,8.5h495.4c4.7,0,8.5-3.9,8.3-8.5c-0.2-2.7-0.4-5.4-0.7-8H130.9L130.9,260.1z"/>
<path class="st4" d="M512,268.1c-6-101-118.3-181.6-256-181.6S6,167.1,0,268.1c-0.3,4.7,3.6,8.5,8.3,8.5h24.5
	c0-86.7,99.9-157.1,223.2-157.1s223.2,70.3,223.2,157.1h24.5C508.4,276.6,512.3,272.8,512,268.1z"/>
<g>
	<path class="st5" d="M240.5,86.8C110,92.7,5.8,170.9,0,268.1c-0.3,4.7,3.6,8.5,8.3,8.5h24.5c0-68.3,61.9-126.3,148.7-148.1
		C198,112.5,218.8,98.2,240.5,86.8z"/>
	<path class="st4" d="M478,260.1c0.8,5.4,1.2,10.9,1.2,16.5h24.5c4.7,0,8.5-3.9,8.3-8.5c-0.2-2.7-0.4-5.4-0.7-8H478z"/>
</g>
<g>
	<path class="st4" d="M256,152.3c-21.8,0-39.4,17.2-39.4,38.3v18.1c0,1,0.5,1.8,1.2,2.4l17,12.5V234c0,1.7,1.4,3,3.1,3h2.5
		c1.7,0,3.1-1.4,3.1-3v-4.2c0-1.1,0.9-1.9,2-1.9l0,0c1.1,0,2,0.9,2,1.9v4.2c0,1.7,1.4,3,3.1,3h0.1c1.7,0,3.1-1.4,3.1-3v-4.2
		c0-1.1,0.9-1.9,2-1.9h0.2c1.1,0,2,0.9,2,1.9v4.2c0,1.7,1.4,3,3.1,3h0.1c1.7,0,3.1-1.4,3.1-3v-4.2c0-1.1,0.9-1.9,2-1.9l0,0
		c1.1,0,2,0.9,2,1.9v4.2c0,1.7,1.4,3,3.1,3h2.5c1.7,0,3.1-1.4,3.1-3v-10.3l17-12.5c0.8-0.6,1.2-1.5,1.2-2.4v-18.1
		C295.4,169.5,277.8,152.3,256,152.3z M239.5,209c-6,0-10.9-4.7-10.9-10.6c0-5.8,4.9-10.6,10.9-10.6s10.9,4.7,10.9,10.6
		S245.5,209,239.5,209z M259.1,216.8h-6.2c-1.4,0-2.3-1.5-1.7-2.7l3.1-5.5c0.7-1.3,2.6-1.3,3.3,0l3.1,5.5
		C261.4,215.3,260.5,216.8,259.1,216.8z M272.5,209c-6,0-10.9-4.7-10.9-10.6c0-5.8,4.9-10.6,10.9-10.6s10.9,4.7,10.9,10.6
		S278.5,209,272.5,209z"/>
</g>
</svg>
