<?xml version="1.0" encoding="utf-8"?>
<!-- Generator: Adobe Illustrator 23.0.3, SVG Export Plug-In . SVG Version: 6.00 Build 0)  -->
<svg version="1.1" id="Object" xmlns="http://www.w3.org/2000/svg" xmlns:xlink="http://www.w3.org/1999/xlink" x="0px" y="0px"
	 viewBox="0 0 512 512" style="enable-background:new 0 0 512 512;" xml:space="preserve">
<style type="text/css">
	.st0{fill:#16143B;}
</style>
<path class="st0" d="M256,16C123.5,16,16,123.5,16,256s107.5,240,240,240s240-107.5,240-240S388.5,16,256,16z M256,464
	c-114.9,0-208-93.1-208-208S141.1,48,256,48s208,93.1,208,208S370.9,464,256,464z"/>
<path class="st0" d="M411.4,148.6c-6.2-6.3-16.4-6.3-22.6-0.1c0,0-0.1,0.1-0.1,0.1L208,329.3l-84.6-85.6c-6.3-6.3-16.4-6.3-22.7,0
	s-6.3,16.4,0,22.7l96,97c6.2,6.3,16.4,6.3,22.6,0.1c0,0,0.1-0.1,0.1-0.1l192-192C417.6,165.1,417.7,155,411.4,148.6
	C411.4,148.7,411.4,148.7,411.4,148.6L411.4,148.6z"/>
</svg>
