<?xml version="1.0" encoding="utf-8"?>
<!-- Generator: Adobe Illustrator 23.0.3, SVG Export Plug-In . SVG Version: 6.00 Build 0)  -->
<svg version="1.1" id="Layer_1" xmlns="http://www.w3.org/2000/svg" xmlns:xlink="http://www.w3.org/1999/xlink" x="0px" y="0px"
	 viewBox="0 0 512 512" style="enable-background:new 0 0 512 512;" xml:space="preserve">
<g>
	<path id="Shape" d="M394.7,64c28.7,0,53.3,23.1,53.3,53.3v277.3c0,28.7-23.1,53.3-53.3,53.3H117.3C88.7,448,64,424.8,64,394.7
		V117.3C64,88.7,86.9,64,117.3,64H394.7z M117.3,85.3c-17,0-32,13.7-32,32v277.3c0,17,13.6,32,32,32h277.3c17,0,32-14,32-32V117.3
		c0-17-14-32-32-32H117.3z M355.9,188.1c3.8,3.8,4.5,10.6,0,15.1L235.2,323.9c-3.9,3.9-10.7,4.7-15.3-0.3l-46.3-49.7
		c-4-4.3-3.8-11.1,0.5-15.1c4-3.7,10.7-4.3,15.1,0.5l38.8,41.6L340.9,188C345,184,351.7,184,355.9,188.1z"/>
</g>
</svg>
