<?xml version="1.0" encoding="utf-8"?>
<!-- Generator: Adobe Illustrator 23.0.3, SVG Export Plug-In . SVG Version: 6.00 Build 0)  -->
<svg version="1.1" id="Layer_3" xmlns="http://www.w3.org/2000/svg" xmlns:xlink="http://www.w3.org/1999/xlink" x="0px" y="0px"
	 viewBox="0 0 512 512" style="enable-background:new 0 0 512 512;" xml:space="preserve">
<style type="text/css">
	.st0{fill:#A4A4EA;}
	.st1{fill:#262660;}
	.st2{fill:#3A3A77;}
	.st3{fill:#8E8EC1;}
	.st4{fill:#8F7EAA;}
	.st5{fill:#8E6FA8;}
	.st6{fill:#54548C;}
	.st7{fill:#6363A5;}
	.st8{fill:#7D7DAA;}
	.st9{fill:#8C8CAF;}
	.st10{fill:#4A4A84;}
</style>
<path class="st0" d="M135.6,48.3C218.9,0.1,323,6.3,400,64l64-16l-16,64c64,85.3,64,202.7,0,288l16,64l-64-16
	c-85.3,64-202.7,64-288,0l-64,16l16-64C6.3,323,0.1,218.9,48.3,135.6c30.7,17.5,69.8,6.8,87.3-23.9C146.8,92.1,146.8,68,135.6,48.3z
	"/>
<path class="st1" d="M139.6,103.3c-6.5,16.7-19.7,29.8-36.4,36.4C39,224,55.3,344.5,139.6,408.7s204.8,48,269.1-36.4
	s48-204.8-36.4-269.1C303.6,50.9,208.4,50.9,139.6,103.3z"/>
<path class="st2" d="M424,248c0-78.1-47.3-148.4-119.6-177.8c-57.1-14.8-117.8-2.6-164.7,33.1c-6.5,16.7-19.7,29.8-36.4,36.4
	c-64.3,84.3-48,204.8,36.3,269c13.5,10.3,28.3,18.7,44,25.1c102.7,26.6,207.6-35,234.2-137.7C421.9,280.4,424,264.2,424,248L424,248
	z"/>
<circle class="st3" cx="256" cy="256" r="80"/>
<path class="st4" d="M288,280l64-24l-64-24C298.7,246.2,298.7,265.8,288,280z"/>
<path class="st4" d="M224,280l-64-24l64-24C213.3,246.2,213.3,265.8,224,280z"/>
<path class="st5" d="M288,232L256,96l-32,136c13.3-17.7,38.3-21.3,56-8C283,226.3,285.7,229,288,232z"/>
<path class="st5" d="M288,280l-32,136l-32-136c13.3,17.7,38.3,21.3,56,8C283,285.7,285.7,283,288,280z"/>
<circle class="st6" cx="256" cy="256" r="40"/>
<path class="st7" d="M216,256c0,8.8,3,17.3,8.4,24.3c5.7,3.1,12.1,4.8,18.6,4.8c22,0.1,39.9-17.6,40-39.6c0-8.9-2.9-17.6-8.4-24.6
	c-19.3-10.4-43.4-3.3-53.8,16C217.6,242.7,216,249.3,216,256L216,256z"/>
<g>
	<path class="st8" d="M88,248h48v16H88V248z"/>
	<path class="st8" d="M376,248h48v16h-48V248z"/>
	<path class="st8" d="M131.5,142.9l11.3-11.3l33.9,33.9l-11.3,11.3L131.5,142.9z"/>
	<path class="st8" d="M335.1,346.5l11.3-11.3l33.9,33.9L369,380.4L335.1,346.5z"/>
	<path class="st8" d="M131.5,369.1l33.9-33.9l11.3,11.3l-33.9,33.9L131.5,369.1z"/>
	<path class="st8" d="M335.1,165.5l33.9-33.9l11.3,11.3l-33.9,33.9L335.1,165.5z"/>
</g>
<circle class="st8" cx="80" cy="80" r="64"/>
<path class="st9" d="M80,16c-35.3,0-64,28.5-64,63.9c0,16.3,6.2,32,17.4,43.9c31,17,69.8,5.6,86.8-25.4c13.3-24.3,9.4-54.5-9.6-74.6
	C101.2,18.6,90.7,16,80,16z"/>
<path class="st10" d="M96,112c-2.7,0-5.2-1.3-6.7-3.6L72,82.4V112H56V56c0-4.4,3.6-8,8-8c2.7,0,5.2,1.3,6.7,3.6l17.3,26V48h16v56
	C104,108.4,100.4,112,96,112z"/>
</svg>
