<?xml version="1.0" encoding="utf-8"?>
<!-- Generator: Adobe Illustrator 25.1.0, SVG Export Plug-In . SVG Version: 6.00 Build 0)  -->
<svg version="1.1" id="Layer_1" xmlns="http://www.w3.org/2000/svg" xmlns:xlink="http://www.w3.org/1999/xlink" x="0px" y="0px"
	 viewBox="0 0 512 512" style="enable-background:new 0 0 512 512;" xml:space="preserve">
<style type="text/css">
	.st0{fill-rule:evenodd;clip-rule:evenodd;fill:#1CCBC4;}
</style>
<path class="st0" d="M256,200c34.6,0,62.7,27.6,62.7,61.7c0,34.1-28.1,61.7-62.7,61.7s-62.7-27.6-62.7-61.7
	C193.3,227.6,221.4,200,256,200z M256,175.3c-48.5,0-87.8,38.7-87.8,86.4c0,47.7,39.3,86.4,87.8,86.4s87.8-38.7,87.8-86.4
	C343.8,214,304.5,175.3,256,175.3L256,175.3z M346.5,154.6c-13.6,0.2-24.5,11.4-24.3,25.1c0.2,13.6,11.4,24.5,25.1,24.3
	c13.5-0.2,24.3-11.2,24.3-24.7C371.4,165.5,360.2,154.5,346.5,154.6z M194.7,127.7h122.5c39.9,0,72.2,31.8,72.2,71v126
	c0,39.2-32.3,71-72.2,71H194.7c-39.9,0-72.2-31.8-72.2-71v-126C122.6,159.5,154.9,127.7,194.7,127.7z M183.2,103.1
	c-47.4,0-85.8,37.8-85.8,84.4v148.3c0,46.6,38.4,84.4,85.8,84.4h145.6c47.4,0,85.8-37.8,85.8-84.4V187.6c0-46.6-38.4-84.4-85.8-84.4
	L183.2,103.1z M256,13.9c136.9,0,247.8,110.9,247.8,247.8c0,136.9-110.9,247.8-247.8,247.8S8.2,398.6,8.2,261.7
	C8.2,124.9,119.1,13.9,256,13.9L256,13.9z"/>
</svg>
