<svg id="Layer_3" height="512" viewBox="0 0 64 64" width="512" xmlns="http://www.w3.org/2000/svg" data-name="Layer 3"><path d="m42.949 29.061a14.042 14.042 0 0 1 -8.007-8l-3.942 3.939v3l5 5h3l3.942-3.942z" fill="#f0ae42"/><path d="m39 30 1.934-1.934a14.032 14.032 0 0 1 -5.992-7.008l-3.942 3.942 5 5z" fill="#f9d266"/><circle cx="48" cy="16" fill="#f0ae42" r="14"/><circle cx="48" cy="16" fill="#fff" r="8"/><circle cx="48" cy="46" fill="#474747" r="10"/><path d="m48 36a9.99 9.99 0 0 0 -7.263 16.86 9.989 9.989 0 0 0 12.526-15.352 9.941 9.941 0 0 0 -5.263-1.508z" fill="#545454"/><path d="m50 36.2a10.1 10.1 0 0 0 -4.015 0h.015v-12.2a2 2 0 0 1 2-2 2 2 0 0 1 2 2z" fill="#f9d266"/><path d="m36 33-16 16h-3v3l-3 3h-3v3l-4 4h-5v-5l2-2h2v-2l25-25" fill="#f9d266"/><path d="m20 46 14.5-14.5-3.5-3.5-25 25v2h-2l-2 2v2h5l4-4v-3h3l3-3v-3z" fill="#fce797"/><path d="m44 51v-1a2.414 2.414 0 0 0 -.707-1.707l-.586-.586a2.414 2.414 0 0 1 -.707-1.707 6 6 0 0 1 6-6 6 6 0 0 1 6 6 2.414 2.414 0 0 1 -.707 1.707l-.586.586a2.414 2.414 0 0 0 -.707 1.707v1a1 1 0 0 1 -1 1h-6a1 1 0 0 1 -1-1z" fill="#939393"/><path d="m50 51v-1a2.414 2.414 0 0 1 .707-1.707l.586-.586a2.414 2.414 0 0 0 .707-1.707 6 6 0 0 0 -5-5.91 6 6 0 0 0 -5 5.91 2.414 2.414 0 0 0 .707 1.707l.586.586a2.414 2.414 0 0 1 .707 1.707v1a1 1 0 0 0 1 1h4a1 1 0 0 0 1-1z" fill="#9b9b9b"/><g fill="#686868"><path d="m45.5 47a1.5 1.5 0 1 1 1.5-1.5 1.5 1.5 0 0 1 -1.5 1.5z"/><path d="m50.5 47a1.5 1.5 0 1 1 1.5-1.5 1.5 1.5 0 0 1 -1.5 1.5z"/><path d="m47 49h2v3h-2z"/></g><path d="m48 33.368v-11.368a2 2 0 0 0 -2 2v10.368h1a1 1 0 0 0 1-1z" fill="#fce797"/></svg>