<?xml version="1.0" encoding="utf-8"?>
<!-- Generator: Adobe Illustrator 25.1.0, SVG Export Plug-In . SVG Version: 6.00 Build 0)  -->
<svg version="1.1" id="Layer_1" xmlns="http://www.w3.org/2000/svg" xmlns:xlink="http://www.w3.org/1999/xlink" x="0px" y="0px"
	 viewBox="0 0 512 512" style="enable-background:new 0 0 512 512;" xml:space="preserve">
<style type="text/css">
	.st0{fill-rule:evenodd;clip-rule:evenodd;fill:#1CCBC4;}
</style>
<path class="st0" d="M256.6,13.9C119.4,13.9,8.2,124.5,8.2,261.7c0,136,111.2,247.8,248.4,247.8s247.2-111.8,247.2-247.8
	C503.8,124.5,393.8,13.9,256.6,13.9L256.6,13.9z M194.8,382h-63V164.6h63V382z M165.2,151.2c-16.1,0-28.4-12.1-28.4-29.1
	c0-15.8,12.4-29.2,28.4-29.2c16.1,1.2,29.7,13.4,29.7,29.2C194.8,139,181.2,151.2,165.2,151.2z M411.1,382h-61.8V247.1
	c0-15.8-4.9-26.7-23.5-26.7c-32.1,0-38.3,26.7-38.3,26.7V382h-61.8V164.6h61.8v20.7c8.7-6.1,30.9-20.7,61.8-20.7
	c19.8,0,61.8,12.1,61.8,85L411.1,382L411.1,382z"/>
</svg>
