<svg id="Capa_1" enable-background="new 0 0 512 512" height="512" viewBox="0 0 512 512" width="512" xmlns="http://www.w3.org/2000/svg"><g><g><path d="m155 460 270.451-12.128c53.071-46.906 86.549-115.474 86.549-191.872 0-141.385-114.615-256-256-256s-256 114.615-256 256c0 16.319 1.545 32.274 4.464 47.745z" fill="#fecf2b"/></g><g><path d="m373.592 346.753-163.016-249.072-163.715 248.236-12.521-8.258 176.285-267.297 175.518 268.176z" fill="#deeefa"/></g><g><path d="m202.734 18h15v349.333h-15z" fill="#823c33"/></g><g><path d="m414.5 140.833h15v182.5h-15z" fill="#823c33"/></g><g><path d="m250.234 373.574h-80v-30c0-5.523 4.477-10 10-10h60c5.523 0 10 4.477 10 10z" fill="#8e4739"/></g><g><path d="m203.234 333.573h-23c-5.523 0-10 4.477-10 10v30h23v-30c0-5.522 4.477-10 10-10z" fill="#823c33"/></g><g><path d="m297.435 188.333h-174.403c-4.184 0-7.925 2.598-9.377 6.522-3.584 9.686-9.512 29.351-9.512 53.478s5.927 43.792 9.512 53.478c1.452 3.924 5.193 6.522 9.377 6.522h174.403c4.184 0 7.925-2.598 9.377-6.522 3.584-9.686 9.512-29.35 9.512-53.478 0-24.127-5.927-43.792-9.512-53.478-1.452-3.924-5.193-6.522-9.377-6.522z" fill="#36527a"/></g><g><path d="m275.192 73.333h-129.917c-2.052 0-3.889 1.252-4.649 3.158-2.761 6.923-8.801 24.609-8.801 46.842s6.04 39.919 8.801 46.842c.76 1.906 2.597 3.158 4.649 3.158h129.918c2.052 0 3.889-1.252 4.649-3.158 2.761-6.923 8.801-24.609 8.801-46.842s-6.04-39.919-8.801-46.842c-.761-1.906-2.598-3.158-4.65-3.158z" fill="#36527a"/></g><g><path d="m145.275 173.333h129.917c2.052 0 3.888-1.252 4.649-3.158 1.057-2.649 2.593-6.878 4.087-12.33-95.361-5.605-126.191-59.695-135.359-84.513h-3.295c-2.052 0-3.889 1.252-4.649 3.158-2.761 6.923-8.801 24.609-8.801 46.842 0 22.234 6.04 39.919 8.801 46.842.761 1.908 2.598 3.159 4.65 3.159z" fill="#284270"/></g><g><path d="m476.959 163.333h-109.918c-2.052 0-3.889 1.252-4.649 3.158-2.761 6.923-8.801 24.609-8.801 46.842s6.04 39.919 8.801 46.842c.76 1.906 2.597 3.158 4.649 3.158h109.918c2.052 0 3.889-1.252 4.649-3.158 2.761-6.923 8.801-24.609 8.801-46.842s-6.04-39.919-8.801-46.842c-.761-1.906-2.597-3.158-4.649-3.158z" fill="#36527a"/></g><g><path d="m439.5 323.333h-76.11l-61.333 44h-218.916l-72.776-39.053c13.762 46.84 40.551 88.099 76.184 119.591h305.995c29.224-33.227 46.956-76.809 46.956-124.538z" fill="#8e4739"/></g><g><g><path d="m238.459 397.434c0-10.53 1.737-20.653 4.939-30.101h-160.257l-72.776-39.053c13.762 46.84 40.551 88.099 76.184 119.591h166.628c-9.316-14.561-14.718-31.868-14.718-50.437z" fill="#823c33"/></g></g><g><path d="m256 512c64.987 0 124.306-24.229 169.451-64.128-1.226.077-2.48.127-3.786.127-41.417 0-41.417-39.999-82.835-39.999-41.415 0-41.415 39.999-82.831 39.999-41.415 0-41.415-39.999-82.831-39.999-41.417 0-41.417 39.999-82.834 39.999-1.306 0-2.56-.05-3.786-.127 45.145 39.899 104.465 64.128 169.452 64.128z" fill="#0cb0ea"/></g><g><g><path d="m383.283 478.138c-11.47-10.869-21.727-22.911-44.452-22.911-41.415 0-41.415 39.999-82.831 39.999-41.415 0-41.415-39.999-82.831-39.999-13.84 0-23.055 4.466-30.736 10.414-7.186 5.564-15.467 7.551-23.282 6.72 39.583 25.095 86.513 39.639 136.849 39.639 46.339 0 89.791-12.327 127.283-33.862z" fill="#0d9cda"/></g></g><g><g><path d="m512 323.33c0 7.78-5.92 14.17-13.5 14.92-.49.05-.99.08-1.5.08h-111.79c-7.8 0-15.48 2.65-21.61 7.47l-30.47 23.91c-11.4 8.94-25.65 13.86-40.13 13.86h-187.14c-10.72 0-21.38-2.68-30.82-7.77l-59.62-32.1c-4.7-12.87-8.39-26.23-10.98-39.98l84.83 45.67c5.08 2.74 10.82 4.18 16.59 4.18h187.14c7.8 0 15.47-2.65 21.61-7.46l30.47-23.91c11.39-8.94 25.64-13.87 40.13-13.87h111.79c3.38 0 6.5 1.12 9 3 3.64 2.74 6 7.1 6 12z" fill="#975242"/></g></g><g><g><path d="m235.719 133.705c1.792-3.753 2.78-7.964 2.74-12.41-.142-15.533-12.691-27.962-28.225-27.962-15.589 0-28.226 12.637-28.226 28.226 0 4.349.984 8.467 2.741 12.146-1.672 1.36-2.741 3.434-2.741 5.757 0 4.098 3.322 7.419 7.419 7.419h7.258c1.336 0 2.419 1.083 2.419 2.419v1.613c0 1.336 1.083 2.419 2.419 2.419h17.419c1.336 0 2.419-1.083 2.419-2.419v-1.613c0-1.336 1.083-2.419 2.419-2.419h7.258c4.098 0 7.419-3.322 7.419-7.419.002-2.323-1.066-4.396-2.738-5.757z" fill="#deeefa"/></g><g><path d="m235.719 133.705c-4.702 3.503-10.533 5.578-16.848 5.578-15.589 0-28.226-12.637-28.226-28.226 0-4.348.984-8.466 2.74-12.145-6.905 5.145-11.377 13.374-11.377 22.647 0 4.349.984 8.467 2.741 12.146-1.672 1.36-2.741 3.434-2.741 5.757 0 4.098 3.322 7.419 7.419 7.419h7.258c1.336 0 2.419 1.083 2.419 2.419v1.613c0 1.336 1.083 2.419 2.419 2.419h17.419c1.336 0 2.419-1.083 2.419-2.419v-1.613c0-1.336 1.083-2.419 2.419-2.419h7.258c4.098 0 7.419-3.322 7.419-7.419.002-2.323-1.066-4.396-2.738-5.757z" fill="#b8dcf2"/></g><g><circle cx="223.462" cy="126.123" fill="#36527a" r="7.751"/></g><g><circle cx="197.555" cy="126.123" fill="#36527a" r="7.751"/></g></g><g><g><path d="m252.628 28.582v16.681c0 2.036 1.842 3.576 3.846 3.214l46.241-8.341c3.582-.646 3.582-5.783 0-6.429l-46.241-8.341c-2.004-.36-3.846 1.179-3.846 3.216z" fill="#ed3346"/></g><g><path d="m198.322 3.267v41.179c0 2.036 1.842 3.576 3.846 3.214l61.376-11.07c1.555-.281 2.687-1.634 2.687-3.214v-19.038c0-1.58-1.131-2.934-2.687-3.214l-61.376-11.07c-2.004-.363-3.846 1.177-3.846 3.213z" fill="#f94862"/></g><g><path d="m240.526 6.972-38.358-6.919c-2.004-.361-3.846 1.178-3.846 3.215v41.179c0 2.036 1.842 3.576 3.846 3.214l39.859-7.189c-8.049-1.431-14.162-8.458-14.162-16.918-.001-7.926 5.365-14.595 12.661-16.582z" fill="#ed3346"/></g></g><g><path d="m297.435 308.333c4.184 0 7.925-2.598 9.377-6.522 1.041-2.812 2.279-6.471 3.512-10.83-120.324-7.358-166.658-72.622-181.718-102.648h-5.574c-4.184 0-7.925 2.598-9.377 6.522-3.584 9.686-9.512 29.351-9.512 53.478s5.927 43.792 9.512 53.478c1.452 3.924 5.192 6.522 9.377 6.522z" fill="#284270"/></g><g><path d="m250.746 188.333h-81.025s-5.254 25.415-5.254 60 5.254 60 5.254 60h81.025s5.254-25.415 5.254-60-5.254-60-5.254-60z" fill="#284270"/></g><g><path d="m254.343 282.455c-40.83-10.458-69.612-28.472-89.64-46.886-.15 4.084-.236 8.348-.236 12.765 0 34.584 5.254 59.999 5.254 60h81.025c0-.002 2.058-9.955 3.597-25.879z" fill="#1d3260"/></g><g><path d="m481.607 260.176c.932-2.337 2.238-5.904 3.558-10.455-71.885-11.444-99.611-58.872-109.785-86.387h-8.339c-2.052 0-3.888 1.252-4.649 3.158-2.761 6.923-8.801 24.609-8.801 46.842 0 22.234 6.04 39.919 8.801 46.842.76 1.906 2.597 3.158 4.649 3.158h109.917c2.053-.001 3.889-1.252 4.649-3.158z" fill="#284270"/></g><g><path d="m445.42 163.333h-46.84s-4.08 21.179-4.08 50 4.08 50 4.08 50h46.84s4.08-21.179 4.08-50c0-28.82-4.08-50-4.08-50z" fill="#284270"/></g><g><path d="m448.407 239.519c-24.731-10.275-41.818-25.488-53.562-40.803-.214 4.58-.345 9.474-.345 14.617 0 28.82 4.08 49.999 4.08 50h46.84c0-.001 1.779-9.241 2.987-23.814z" fill="#1d3260"/></g><g><path d="m389.5 93h65v47.833h-65z" fill="#8e4739"/></g><g><path d="m409.5 93h-20v47.833h65v-20h-17.167c-15.372 0-27.833-12.461-27.833-27.833z" fill="#823c33"/></g><g><path d="m454.5 148.333h-65c-4.142 0-7.5-3.358-7.5-7.5 0-4.142 3.358-7.5 7.5-7.5h65c4.142 0 7.5 3.358 7.5 7.5 0 4.142-3.358 7.5-7.5 7.5z" fill="#975242"/></g><g><path d="m454.5 100.5h-65c-4.142 0-7.5-3.358-7.5-7.5 0-4.142 3.358-7.5 7.5-7.5h65c4.142 0 7.5 3.358 7.5 7.5 0 4.142-3.358 7.5-7.5 7.5z" fill="#975242"/></g><g><path d="m89.27 349.39-84.83-45.67c2.59 13.75 6.28 27.11 10.98 39.98l59.62 32.1c9.44 5.09 20.1 7.77 30.82 7.77h64.305c-8.252-.038-14.931-6.735-14.931-14.997 0-8.284 6.716-15 15-15l-.002-.003h-64.372c-5.77 0-11.51-1.44-16.59-4.18z" fill="#8e4739"/></g></g></svg>