<?xml version="1.0" encoding="utf-8"?>
<!-- Generator: Adobe Illustrator 25.1.0, SVG Export Plug-In . SVG Version: 6.00 Build 0)  -->
<svg version="1.1" id="Capa_1" xmlns="http://www.w3.org/2000/svg" xmlns:xlink="http://www.w3.org/1999/xlink" x="0px" y="0px"
	 viewBox="0 0 504.4 396.4" style="enable-background:new 0 0 504.4 396.4;" xml:space="preserve">
<style type="text/css">
	.st0{fill:#D3EFFB;}
	.st1{fill:#B1E4F9;}
	.st2{fill:#E4F6FF;}
	.st3{fill:#477B9E;}
	.st4{fill:#75CEF9;}
	.st5{fill:#6BBEF6;}
	.st6{fill:#90D8F9;}
</style>
<g>
	<path class="st0" d="M265.1,154.4c-1.7-0.6-3-2.1-3.4-3.9c-2.5-14.4-18.9-22.9-32.3-17.8c-2.7,1-5.7-0.3-6.7-3
		c-5.7-15.1-20.2-25.9-37.3-25.9s-31.7,10.8-37.3,25.9c-1,2.7-4,4-6.7,3c-13.4-5-28.7,3.4-31.3,17.8c-0.4,2.3-2.4,4.1-4.7,4.2
		c-9.9,0.5-18.1,8.8-18.1,19.1c0,0.1,0,0.1,0,0.2c0.1,8.1,6.8,14.7,14.9,14.7h99.3l4.6,3.3l44.5-3.3l15.9-30.5L265.1,154.4z"/>
	<g>
		<path class="st1" d="M136.6,174c0-0.1,0-0.1,0-0.2c0-10.3,8.1-18.6,18.1-19.1c2.4-0.1,4.3-1.9,4.7-4.2
			c2.5-14.4,17.9-22.9,31.3-17.8c2.7,1,5.7-0.3,6.7-3c2.6-6.9,7-12.9,12.7-17.3c-6.8-5.3-15.3-8.5-24.6-8.5
			c-17.1,0-31.7,10.8-37.3,25.9c-1,2.7-4,4-6.7,3c-13.4-5-28.7,3.4-31.3,17.8c-0.4,2.3-2.4,4.1-4.7,4.2c-9.9,0.5-18.1,8.8-18.1,19.1
			c0,0.1,0,0.1,0,0.2c0.1,8.1,6.8,14.7,14.9,14.7h49.2C143.4,188.6,136.7,182.1,136.6,174z"/>
	</g>
	<path class="st2" d="M441.8,218.1c-3.9-0.2-7-3.1-7.7-6.9c-4.1-23.6-29.3-37.4-51.2-29.2c-4.4,1.7-9.4-0.5-11-4.9
		c-9.3-24.7-33.1-42.3-61.1-42.3s-51.8,17.6-61.1,42.3c-1.7,4.4-6.6,6.5-11,4.9c-22-8.3-47.1,5.6-51.2,29.2
		c-0.7,3.8-3.9,6.7-7.7,6.9c-16.3,0.9-29.6,14.4-29.6,31.3c0,0.1,0,0.2,0,0.3c0.1,5.9,2.2,12.3,5.8,16.4l4.4,7.1h300.8l4.9-7.6
		c3.3-4.1,5.3-10.2,5.3-15.9c0-0.1,0-0.2,0-0.3C471.4,232.5,458.1,218.9,441.8,218.1L441.8,218.1z"/>
	<path class="st0" d="M227.8,249.7c0-0.1,0-0.2,0-0.3c0-16.9,13.3-30.4,29.6-31.3c3.9-0.2,7-3.1,7.7-6.9
		c4.1-23.6,29.3-37.4,51.2-29.2c4.4,1.7,9.4-0.5,11-4.9c4.5-11.9,12.3-22.1,22.3-29.5c-10.8-8-24.3-12.8-38.8-12.8
		c-28,0-51.8,17.6-61.1,42.3c-1.7,4.4-6.6,6.5-11,4.9c-22-8.3-47.1,5.6-51.2,29.2c-0.7,3.8-3.9,6.7-7.7,6.9
		c-16.3,0.9-29.6,14.4-29.6,31.3c0,0.1,0,0.2,0,0.3c0.1,5.9,2.2,12.3,5.8,16.4l4.4,7.1H238l-4.4-7.1
		C230,261.9,227.8,255.6,227.8,249.7L227.8,249.7z"/>
	<path class="st3" d="M321.2,51.6l-15.1-11.1c-3.1-2.3-7.5-1.9-10.1,1l-12.5,13.6L271,41.5c-2.6-2.9-7-3.3-10.1-1l-15.1,11.1
		c-3.4,2.5-4.1,7.3-1.6,10.6c2.5,3.4,7.3,4.1,10.6,1.6l9.6-7.1l13.5,14.7c2.6,2.9,7.5,3.7,11.3-0.1l13.4-14.6l9.6,7.1
		c3.4,2.5,8.1,1.8,10.6-1.6C325.3,58.9,324.6,54.1,321.2,51.6L321.2,51.6z"/>
	<path class="st3" d="M238.9,12.6L223.8,1.5c-3.1-2.3-7.5-1.9-10.1,1l-12.5,13.6L188.7,2.5c-2.6-2.9-7-3.3-10.1-1l-15.1,11.1
		c-3.4,2.5-4.1,7.3-1.6,10.6c2.5,3.4,7.3,4.1,10.6,1.6l9.6-7.1l13.4,14.7c2.6,2.9,7.5,3.7,11.3-0.1l13.4-14.6l9.6,7.1
		c3.4,2.5,8.1,1.8,10.6-1.6C243,19.9,242.3,15.1,238.9,12.6z"/>
	<path class="st0" d="M490.5,56.1h-11.2c-3.7-6.8-10.5-11.6-18.1-12.7c-3.5-0.5-7-0.3-10.3,0.6c-6.2-15.2-21.5-25-38.2-24.2
		c-19.8,1-35.6,16.6-36.9,36.3h-15.4c-4.2,0-7.6,3.4-7.6,7.6s3.4,7.6,7.6,7.6h16.2c7.6,0,13.9-6,14.3-13.7v-0.2
		c0.7-12,10.6-21.8,22.5-22.4c10.8-0.5,20.7,6.2,24,16.5c1,3.3,3.4,5.9,6.5,7.4c3.1,1.4,6.7,1.5,9.9,0.2c1.6-0.7,3.4-0.9,5.2-0.6
		c3,0.4,5.6,2.3,7,5.1c2.5,4.8,7.6,7.8,13.2,7.8h11.3c4.2,0,7.6-3.4,7.6-7.6S494.7,56.1,490.5,56.1L490.5,56.1z"/>
	<path class="st4" d="M497.7,253.8c-6.2,7-15.3,11.3-25.4,11.3c-11.1,0-20.9-5.3-27.1-13.5c-2.4-3.1-7-3.1-9.4,0
		c-6.2,8.2-16,13.5-27.1,13.5s-20.9-5.3-27.1-13.5c-2.4-3.1-7-3.1-9.4,0c-6.2,8.2-16,13.5-27.1,13.5s-20.9-5.3-27.1-13.5
		c-2.4-3.1-7-3.1-9.4,0c-6.2,8.2-16,13.5-27.1,13.5s-20.9-5.3-27.1-13.5c-2.4-3.1-7-3.1-9.4,0c-6.2,8.2-16,13.5-27.1,13.5
		s-20.9-5.3-27.1-13.5c-2.4-3.1-7-3.1-9.4,0c-6.2,8.2-16,13.5-27.1,13.5s-20.9-5.3-27.1-13.5c-2.4-3.1-7-3.1-9.4,0
		c-6.2,8.2-16,13.5-27.1,13.5s-20.9-5.3-27.1-13.5c-2.4-3.1-7-3.1-9.4,0c-6.2,8.2-16,13.5-27.1,13.5c-7.9,0-15.3-2.7-21-7.3
		c-2.5-2-6.2-0.2-6.2,3L0,320c6.2,8.3,16.1,13.6,27.2,13.6s20.9-5.3,27.1-13.5c2.4-3.1,7-3.1,9.4,0c6.2,8.2,16,13.5,27.1,13.5
		s20.9-5.3,27.1-13.5c2.4-3.1,7-3.1,9.4,0c6.2,8.2,16,13.5,27.1,13.5s20.9-5.3,27.1-13.5c2.4-3.1,7-3.1,9.4,0
		c6.2,8.2,16,13.5,27.1,13.5s20.9-5.3,27.1-13.5c2.4-3.1,7-3.1,9.4,0c6.2,8.2,16,13.5,27.1,13.5s20.9-5.3,27.1-13.5
		c2.4-3.1,7-3.1,9.4,0c6.2,8.2,16,13.5,27.1,13.5s20.9-5.3,27.1-13.5c2.4-3.1,7-3.1,9.4,0c6.2,8.2,16,13.5,27.1,13.5
		s20.9-5.3,27.1-13.5c2.4-3.1,7-3.1,9.4,0c6.2,8.2,16,13.5,27.1,13.5c14.7,0,27.3-9.4,32-22.5v-54.8
		C504.4,252.8,500.1,251.2,497.7,253.8z"/>
	<path class="st5" d="M91.1,265.1c-0.1,0-0.2,0-0.3,0c-11.1,0-20.9-5.3-27.1-13.5c-2.4-3.1-7-3.1-9.4,0c-6.2,8.2-16,13.5-27.1,13.5
		c-7.9,0-15.3-2.7-21-7.3c-2.5-2-6.2-0.2-6.2,3V320c6.2,8.3,16.1,13.6,27.2,13.6s20.9-5.3,27.1-13.5c2.4-3.1,7-3.1,9.4,0
		c6.2,8.2,16,13.5,27.1,13.5c0.1,0,0.2,0,0.3,0C91.1,333.6,91.1,265.1,91.1,265.1z"/>
	<path class="st6" d="M472.4,329.5c-11.1,0-20.9-5.3-27.1-13.5c-2.4-3.1-7-3.1-9.4,0c-6.2,8.2-16,13.5-27.1,13.5
		s-20.9-5.3-27.1-13.5c-2.4-3.1-7-3.1-9.4,0c-6.2,8.2-16,13.5-27.1,13.5s-20.9-5.3-27.1-13.5c-2.4-3.1-7-3.1-9.4,0
		c-6.2,8.2-16,13.5-27.1,13.5s-20.9-5.3-27.1-13.5c-2.4-3.1-7-3.1-9.4,0c-6.2,8.2-16,13.5-27.1,13.5s-20.9-5.3-27.1-13.5
		c-2.4-3.1-7-3.1-9.4,0c-6.2,8.2-16,13.5-27.1,13.5s-20.9-5.3-27.1-13.5c-2.4-3.1-7-3.1-9.4,0c-6.2,8.2-16,13.5-27.1,13.5
		s-20.9-5.3-27.1-13.5c-2.4-3.1-7-3.1-9.4,0c-6.2,8.2-16,13.5-27.1,13.5s-21-5.3-27.2-13.6v186.7c0,5.2,4.2,9.5,9.5,9.5H495
		c5.2,0,9.5-4.2,9.5-9.5V307C499.7,320.1,487.1,329.5,472.4,329.5L472.4,329.5z"/>
	<path class="st4" d="M91.1,329.5c-0.1,0-0.2,0-0.3,0c-11.1,0-20.9-5.3-27.1-13.5c-2.4-3.1-7-3.1-9.4,0c-6.2,8.2-16,13.5-27.1,13.5
		s-21-5.3-27.2-13.6v186.7c0,5.2,4.2,9.5,9.5,9.5h81.6L91.1,329.5L91.1,329.5z"/>
</g>
</svg>
