<?xml version="1.0" encoding="utf-8"?>
<!-- Generator: Adobe Illustrator 23.0.3, SVG Export Plug-In . SVG Version: 6.00 Build 0)  -->
<svg version="1.1" id="Layer_1" xmlns="http://www.w3.org/2000/svg" xmlns:xlink="http://www.w3.org/1999/xlink" x="0px" y="0px"
	 viewBox="0 0 792.8 512" style="enable-background:new 0 0 792.8 512;" xml:space="preserve">
<style type="text/css">
	.st0{fill:#544F84;}
	.st1{fill:#D4CBCC;}
	.st2{fill:#B3ADAD;}
	.st3{fill:#454070;}
	.st4{fill:#EDE4E5;}
	.st5{fill:#8D7EE8;}
	.st6{fill:#A194EA;}
	.st7{fill:#CDC7EA;}
	.st8{fill:#D7D0EE;}
	.st9{fill:#C4BFE0;}
	.st10{fill:#BDB7E5;}
	.st11{fill:#AF6197;}
</style>
<g id="_23-roger_skull">
	<path class="st0" d="M526,120.2l88.7-106c6.1-7.3,17-8.3,24.3-2.2s8.3,17,2.2,24.3l0,0l-4,4.8l-84.8,101.3L526,120.2z"/>
	<path class="st1" d="M526,120.2l26.4,22.2C219.7,539.8,149.2,503.1,149.2,503.1C266.5,443.7,526,120.2,526,120.2L526,120.2z"/>
	<path class="st2" d="M525.2,152l11.7,8.8c5.1-6,10.3-12.2,15.5-18.4L526,120.2c0,0-259.5,323.5-376.8,383l0.2,0.1
		C252.5,485.3,525.2,152,525.2,152L525.2,152z"/>
	<path class="st3" d="M567.6,107.8c-5.8,6.7-15.9,7.5-22.6,1.7l-5.9-5.1L526,120.2l26.4,22.2l84.8-101.3l4-4.8
		c4-4.9,5.1-11.6,2.7-17.4L567.6,107.8z"/>
	<path class="st0" d="M268.4,120.2L242,142.4L157.2,41.1l-4-4.8c-6.1-7.3-5.2-18.2,2.2-24.3c7.3-6.1,18.2-5.2,24.3,2.2L268.4,120.2z
		"/>
	<path class="st4" d="M645.2,503.1c0,0-70.6,36.7-403.2-360.7l26.4-22.2C268.4,120.2,527.9,443.7,645.2,503.1L645.2,503.1z"/>
	<path class="st1" d="M268.4,120.2L242,142.4c5.2,6.2,10.4,12.4,15.5,18.4l11.7-8.8c0,0,272.7,333.3,375.8,351.2l0.2-0.1
		C527.9,443.7,268.4,120.2,268.4,120.2L268.4,120.2z"/>
	<path class="st3" d="M226.8,107.8l-76.3-89c-2.4,5.9-1.4,12.6,2.7,17.4l4,4.8L242,142.4l26.4-22.2l-13.1-15.7l-5.9,5.1
		C242.6,115.3,232.5,114.5,226.8,107.8z"/>
	<path class="st5" d="M642.1,35c-0.3,0.5-0.6,0.9-0.9,1.4l-4,4.8l-8,9.6v54.8c0,23.4-19.1,42.4-42.5,42.4c-10.6,0-20.8-4-28.6-11.2
		l-0.1,0.1c-0.1-0.2-0.3-0.4-0.4-0.5L538,119.7c-0.1-0.1-0.1-0.2-0.2-0.2l-6.6-5.5l-19.8-16.6c-3.4-2.8-8.4-2.4-11.3,1
		c-2.8,3.4-2.4,8.4,1,11.3l0,0l19.7,16.5l0.1,0.1l26.4,22.2c23.7,21.8,60.7,20.3,82.5-3.5c9.9-10.8,15.4-24.9,15.4-39.5V41.1
		C645.2,38.7,644,36.4,642.1,35z"/>
	<path class="st6" d="M294.4,98.4c-2.8-3.4-7.9-3.8-11.3-1l0,0L263.2,114l-6.6,5.5c-0.1,0.1-0.1,0.2-0.2,0.2l-19.6,16.5
		c-0.1,0.1-0.1,0.1-0.2,0.2c-0.1,0.1-0.1,0.1-0.2,0.1c-17.1,16-44,15-59.9-2.1c-7.3-7.9-11.4-18.2-11.4-29V50.7l-8-9.6l-4-4.8
		c-0.4-0.4-0.6-0.9-0.9-1.4c-1.9,1.5-3.1,3.7-3.1,6.2v64.4c0,32.3,26.2,58.4,58.4,58.4c14.6,0,28.6-5.5,39.4-15.3c0,0,0.1,0,0.1-0.1
		l26.4-22.2l0.1-0.1l19.7-16.5C296.7,106.8,297.2,101.8,294.4,98.4L294.4,98.4z"/>
</g>
<path class="st7" d="M790.5,448.3c1.2,2.2-0.7,4.7-4.3,5.4c-0.7,0.1-1.4,0.2-2.1,0.2H573.4c-10.8,0-21.2-2.7-28.8-7.5
	c-8-5.1-12.3-12-11.8-19.1c0,0.3-0.1,0.7-0.1,1v-76.8h-272v76.8c0-0.3-0.1-0.7-0.1-1c0.4,7.1-3.9,14-11.8,19.1
	c-7.6,4.8-18,7.5-28.8,7.5H9.2c-3.8,0-6.8-1.9-6.7-4.3c0-0.5,0.1-0.9,0.4-1.3l37-69.8c0.5-0.9,0.5-1.9,0-2.7L2.9,306
	c-1.2-2.2,0.7-4.7,4.3-5.4c0.7-0.1,1.4-0.2,2.1-0.2h102v-93.9c0-14.1,18.3-25.6,40.8-25.6h489.4c22.5,0,40.8,11.5,40.8,25.6v93.9
	h102c3.8,0,6.8,1.9,6.7,4.3c0,0.5-0.1,0.9-0.4,1.3l-37,69.8c-0.5,0.9-0.5,1.9,0,2.7L790.5,448.3z"/>
<path class="st8" d="M260.9,426.5c1.7,14.1-15.2,26.4-37.7,27.4c-1,0-2,0.1-3,0.1H9.1c-3.8,0-6.8-1.9-6.8-4.3c0-0.5,0.1-0.9,0.3-1.3
	l37.2-69.8c0.5-0.9,0.5-1.8,0-2.7L2.6,306c-1.2-2.2,0.7-4.7,4.3-5.4c0.7-0.1,1.4-0.2,2.1-0.2h102.1v76.8c0,14.1,18.3,25.6,40.9,25.6
	h65.8C239.8,402.5,258.5,412.8,260.9,426.5L260.9,426.5z"/>
<path class="st9" d="M261,351.6V429c0-14.3-18.3-25.8-40.8-25.8h-68.1c-22.6,0-40.8-11.6-40.8-25.8c0-14.3,18.3-25.8,40.8-25.8
	L261,351.6L261,351.6z"/>
<path class="st9" d="M682.2,377.4c0,14.3-18.3,25.9-40.8,25.9h-68c-22.5,0-40.8,11.6-40.8,25.9v-77.6h108.8
	C663.9,351.6,682.2,363.1,682.2,377.4z"/>
<g>
	<path class="st8" d="M753.4,378.5l37.1,69.8c1.2,2.2-0.7,4.7-4.3,5.4c-0.7,0.1-1.4,0.2-2.1,0.2H573.4c-22.5,0-40.8-11.5-40.8-25.6
		c0-0.6,0-1.3,0.1-1.9c2.4-13.7,21-24,43-23.7h65.7c22.5,0,40.8-11.5,40.8-25.6v-76.8h101.9c3.8,0,6.8,1.9,6.8,4.3
		c0,0.5-0.1,0.9-0.3,1.3l-37.1,69.8C753,376.7,753,377.6,753.4,378.5L753.4,378.5z"/>
	<path class="st10" d="M383.1,223.6H233.6c-7.5,0-13.6-3.8-13.6-8.5s6.1-8.5,13.6-8.5h149.5c7.5,0,13.6,3.8,13.6,8.5
		C396.7,219.7,390.6,223.6,383.1,223.6z"/>
	<path class="st10" d="M179.3,223.6h-13.6c-7.5,0-13.6-3.8-13.6-8.5s6.1-8.5,13.6-8.5h13.6c7.5,0,13.6,3.8,13.6,8.5
		C192.9,219.7,186.8,223.6,179.3,223.6z"/>
</g>
<g>
	<g>
		<path class="st11" d="M374.8,233.9c5.3,0,9.7-4.1,9.7-9.2s-4.3-9.2-9.7-9.2h-36.3c-5.3,0-9.7,4.1-9.7,9.2V307
			c0,5.1,4.3,9.2,9.7,9.2h36.3c5.3,0,9.7-4.1,9.7-9.2s-4.3-9.2-9.7-9.2h-26.6v-22.7h24c5.3,0,9.7-4.1,9.7-9.2s-4.3-9.2-9.7-9.2h-24
			V234L374.8,233.9z"/>
		<path class="st11" d="M296.2,259.7c3.4-4.6,5.4-10.2,5.4-16.3c0-15.6-13.3-28.3-29.7-28.3h-25.3c-5.3,0-9.7,4.1-9.7,9.2v83.1
			c0,2.5,1,4.8,2.8,6.5s4.3,2.7,6.8,2.7l0,0c0,0,23.2-0.1,29.6-0.1c18.2,0,33.1-14.2,33.1-31.6C309.4,274.7,304.2,265.5,296.2,259.7
			L296.2,259.7z M256.3,233.6h15.6c5.7,0,10.4,4.4,10.4,9.9s-4.6,9.9-10.4,9.9c-1.9,0-15.6,0-15.6,0V233.6z M276.3,298.1
			c-3.7,0-12.8,0-20,0.1v-26.3c2.1,0,20,0,20,0c7.6,0,13.7,5.9,13.7,13.1C290.1,292.2,283.9,298.1,276.3,298.1L276.3,298.1z"/>
		<path class="st11" d="M452.1,257.9c-9.4-3.3-18.1-6.8-22.4-8.6c-1.3-0.6-2.4-1.3-3-2.1c-1.3-1.8-1.6-4.3-0.8-6.6
			c1-2.9,3.7-5,7.4-6.1c12.9-3.7,24.7,5.3,25,5.5c4.1,3.2,10.1,2.7,13.6-1.2c3.4-3.9,2.9-9.7-1.2-13c-0.8-0.6-19.9-15.7-43-9
			c-9.7,2.8-17,9.3-20.1,17.7c-2.9,7.9-1.6,16.5,3.2,23.2c2.7,3.6,6.5,6.5,11.1,8.4c4.5,1.9,13.6,5.5,23.4,9
			c4.1,1.4,13.5,5.6,12.2,12.6c-1,5.1-7.3,10.4-16.4,10.4c-9,0-17.6-3.5-23.1-9.3c-3.6-3.8-9.7-4.1-13.6-0.6
			c-3.9,3.4-4.3,9.3-0.7,13c9.1,9.6,23.1,15.3,37.4,15.3c17.7,0,32.6-10.8,35.4-25.6C478.7,279.9,473.3,265.4,452.1,257.9
			L452.1,257.9z"/>
		<path class="st11" d="M489.7,224.3c0,5.1,4.3,9.2,9.7,9.2h14.3v73.9c0,5.1,4.3,9.2,9.7,9.2c5.3,0,9.7-4.1,9.7-9.2v-73.9h14.4
			c5.3,0,9.7-4.1,9.7-9.2s-4.3-9.2-9.7-9.2h-48C494,215.1,489.7,219.2,489.7,224.3L489.7,224.3z"/>
	</g>
</g>
</svg>
