<?xml version="1.0" encoding="utf-8"?>
<!-- Generator: Adobe Illustrator 25.1.0, SVG Export Plug-In . SVG Version: 6.00 Build 0)  -->
<svg version="1.1" id="Capa_1" xmlns="http://www.w3.org/2000/svg" xmlns:xlink="http://www.w3.org/1999/xlink" x="0px" y="0px"
	 viewBox="0 0 419.2 512" style="enable-background:new 0 0 419.2 512;" xml:space="preserve">
<style type="text/css">
	.st0{fill:#E49542;}
	.st1{fill:#E27D47;}
	.st2{fill:#FFE07D;}
	.st3{fill:#FFD064;}
	.st4{fill:#52C1B6;}
	.st5{fill:#64D8C7;}
	.st6{fill:#F4FBFF;}
	.st7{fill:#DDEAFB;}
	.st8{fill:#BED8FB;}
</style>
<g>
	<g>
		<g>
			<path class="st0" d="M240.8,503.6l87.4-50.5c51.5-29.7,83.2-84.7,83.2-144.2V93.6c0-11.1-8.7-20.3-19.7-20.9
				C298,67.9,247.2,29.8,224.5,6.3c-8.1-8.4-21.7-8.4-29.8,0C172,29.8,121.1,67.9,27.5,72.7C16.4,73.3,7.8,82.5,7.8,93.6V309
				c0,59.5,31.7,114.4,83.2,144.2l87.4,50.5C197.7,514.8,221.5,514.8,240.8,503.6L240.8,503.6z"/>
		</g>
		<g>
			<path class="st1" d="M149.2,429.8c-39.3,0-76.7-8.5-110.3-23.7C52.5,425,70.1,441.2,91,453.3l87.4,50.5
				c19.3,11.2,43.1,11.2,62.4,0l87.4-50.5c51.5-29.7,83.2-84.7,83.2-144.2v-94C387,337.5,278.9,429.8,149.2,429.8L149.2,429.8z"/>
		</g>
		<g>
			<path class="st2" d="M209.6,470.4c-3.6,0-7.2-1-10.4-2.8l-87.4-50.5C73.3,394.9,49.4,353.4,49.4,309V122.1
				c0-5.2,3.9-9.7,9.1-10.3c69.4-8.7,116-34.5,144.8-57.2c3.8-3,9.1-3,12.8,0c28.7,22.7,75.4,48.5,144.8,57.2
				c5.2,0.7,9.1,5.1,9.1,10.3V309c0,44.5-23.9,85.9-62.4,108.1l-87.4,50.5C216.8,469.4,213.2,470.4,209.6,470.4L209.6,470.4z"/>
		</g>
		<g>
			<path class="st3" d="M113.9,394.4c-11,0-21.8-0.7-32.5-2c8.7,9.7,18.9,18.1,30.4,24.7l87.4,50.5c3.2,1.8,6.8,2.8,10.4,2.8
				s7.2-1,10.4-2.8l87.4-50.5c38.5-22.2,62.4-63.7,62.4-108.1V204.5C336.6,314.4,234.6,394.4,113.9,394.4L113.9,394.4z"/>
		</g>
		<g>
			<path class="st4" d="M316.8,197.1h-58.6c-4.3,0-7.7-3.5-7.7-7.7s3.5-7.7,7.7-7.7h53.1l5.5-15.6c1.1-3.1,4-5.2,7.3-5.2h12.5
				c4.3,0,7.7,3.5,7.7,7.7s-3.5,7.7-7.7,7.7h-7l-5.5,15.6C323,195,320.1,197.1,316.8,197.1L316.8,197.1z"/>
		</g>
		<g>
			<path class="st4" d="M336.6,288.7h-12.5c-3.3,0-6.2-2.1-7.3-5.2l-5.5-15.6h-53.1c-4.3,0-7.7-3.5-7.7-7.7c0-4.3,3.5-7.7,7.7-7.7
				h58.6c3.3,0,6.2,2.1,7.3,5.2l5.5,15.6h7c4.3,0,7.7,3.5,7.7,7.7S340.8,288.7,336.6,288.7L336.6,288.7z"/>
		</g>
		<g>
			<path class="st4" d="M378.2,232.5H264.5c-4.3,0-7.7-3.5-7.7-7.7c0-4.3,3.5-7.7,7.7-7.7h113.7c4.3,0,7.7,3.5,7.7,7.7
				S382.5,232.5,378.2,232.5L378.2,232.5z"/>
		</g>
		<g>
			<path class="st4" d="M150.6,197.1h-48.2c-3.3,0-6.2-2.1-7.3-5.2l-5.5-15.6h-7c-4.3,0-7.7-3.5-7.7-7.7s3.5-7.7,7.7-7.7h12.5
				c3.3,0,6.2,2.1,7.3,5.2l5.5,15.6h42.7c4.3,0,7.7,3.5,7.7,7.7S154.9,197.1,150.6,197.1z"/>
		</g>
		<g>
			<path class="st4" d="M95.1,288.7H82.6c-4.3,0-7.7-3.5-7.7-7.7c0-4.3,3.5-7.7,7.7-7.7h7l5.5-15.6c1.1-3.1,4-5.2,7.3-5.2h48.2
				c4.3,0,7.7,3.5,7.7,7.7c0,4.3-3.5,7.7-7.7,7.7h-42.7l-5.5,15.6C101.3,286.6,98.4,288.7,95.1,288.7z"/>
		</g>
		<g>
			<path class="st4" d="M144.3,232.5H41c-4.3,0-7.7-3.5-7.7-7.7c0-4.3,3.5-7.7,7.7-7.7h103.3c4.3,0,7.7,3.5,7.7,7.7
				C152.1,229,148.6,232.5,144.3,232.5z"/>
		</g>
		<g>
			<g>
				<path class="st5" d="M353.2,193c13.4,0,24.4-10.9,24.4-24.4s-10.9-24.4-24.4-24.4s-24.4,10.9-24.4,24.4
					C328.8,182,339.8,193,353.2,193L353.2,193z"/>
			</g>
			<g>
				<path class="st5" d="M353.2,256.6c-13.4,0-24.4,10.9-24.4,24.4s10.9,24.4,24.4,24.4c13.4,0,24.4-10.9,24.4-24.4
					S366.7,256.6,353.2,256.6z"/>
			</g>
			<g>
				<path class="st5" d="M394.8,200.4c-13.4,0-24.4,10.9-24.4,24.4c0,13.4,10.9,24.4,24.4,24.4c13.4,0,24.4-10.9,24.4-24.4
					C419.2,211.3,408.3,200.4,394.8,200.4L394.8,200.4z"/>
			</g>
			<g>
				<path class="st5" d="M66,144.2c-13.4,0-24.4,10.9-24.4,24.4C41.6,182,52.5,193,66,193s24.4-10.9,24.4-24.4S79.4,144.2,66,144.2
					L66,144.2z"/>
			</g>
			<g>
				<path class="st5" d="M66,256.6c-13.5,0-24.4,10.9-24.4,24.4s10.9,24.4,24.4,24.4s24.4-10.9,24.4-24.4S79.4,256.6,66,256.6z"/>
			</g>
			<g>
				<path class="st5" d="M24.4,200.4C11,200.4,0,211.3,0,224.8c0,13.4,10.9,24.4,24.4,24.4s24.4-10.9,24.4-24.4
					S37.8,200.4,24.4,200.4L24.4,200.4z"/>
			</g>
		</g>
	</g>
	<g>
		<g>
			<g>
				<path class="st6" d="M290.7,267.3c7.1-13.6,11-29.2,10.4-45.7c-1.7-48.5-41.6-87.6-90.1-88.3c-51.2-0.8-93,40.5-93,91.6
					c0,15.3,3.8,29.8,10.4,42.5c4.5,8.6,2.9,19.1-4,26c-4.3,4.3-4.3,11.4,0,15.7l11.4,11.4c4.3,4.3,11.5,4.6,15.6,0.1
					c2-2.1,5.4-0.7,5.4,2.1v16c0,6.1,5,11.1,11.1,11.1h41.7h41.6c6.1,0,11.1-5,11.1-11.1v-16c0-2.8,3.5-4.2,5.4-2.1
					c4.1,4.5,11.3,4.2,15.6-0.1l11.4-11.4c4.3-4.3,4.3-11.4,0-15.7C287.9,286.4,286.2,275.9,290.7,267.3L290.7,267.3z"/>
			</g>
			<g>
				<path class="st7" d="M290.7,267.3c7.1-13.6,11-29.2,10.4-45.7c-0.6-16.3-5.4-31.4-13.5-44.5c0,0.3,0,0.6,0,0.9
					c0,69.5-56.4,125.9-125.9,125.9c-13.9,0-27.3-2.3-39.9-6.4c-1.4,3.9-0.5,8.4,2.6,11.5l11.4,11.4c4.3,4.3,11.5,4.6,15.6,0.1
					c2-2.1,5.4-0.7,5.4,2.1v16c0,6.1,5,11.1,11.1,11.1h41.7h41.6c6.1,0,11.1-5,11.1-11.1v-16c0-2.8,3.5-4.2,5.4-2.1
					c4.1,4.5,11.3,4.2,15.6-0.1l11.4-11.4c4.3-4.3,4.3-11.4,0-15.7C287.9,286.4,286.2,275.9,290.7,267.3L290.7,267.3z"/>
			</g>
			<g>
				<path class="st2" d="M261.3,256.4c0,10.1-8.2,18.3-18.3,18.3s-18.3-8.2-18.3-18.3c0-10.1,8.9-14.7,18.3-18.3
					C263.6,230,261.3,246.3,261.3,256.4z"/>
			</g>
			<g>
				<path class="st2" d="M157.9,256.4c0,10.1,8.2,18.3,18.3,18.3s18.3-8.2,18.3-18.3c0-10.1-8.9-14.7-18.3-18.3
					C155.6,230,157.9,246.3,157.9,256.4z"/>
			</g>
		</g>
	</g>
	<g>
		<path class="st8" d="M221.6,349.7V331c0-4.3,3.5-7.7,7.7-7.7s7.7,3.5,7.7,7.7v18.7H221.6z"/>
		<path class="st8" d="M182.1,349.7V331c0-4.3,3.5-7.7,7.7-7.7c4.2,0,7.7,3.5,7.7,7.7v18.7H182.1z"/>
	</g>
</g>
</svg>
