<?xml version="1.0" encoding="utf-8"?>
<!-- Generator: Adobe Illustrator 23.0.3, SVG Export Plug-In . SVG Version: 6.00 Build 0)  -->
<svg version="1.1" id="Capa_1" xmlns="http://www.w3.org/2000/svg" xmlns:xlink="http://www.w3.org/1999/xlink" x="0px" y="0px"
	 viewBox="0 0 512 512" style="enable-background:new 0 0 512 512;" xml:space="preserve">
<style type="text/css">
	.st0{fill:#633156;}
	.st1{fill:#753863;}
	.st2{fill:#E1DFEA;}
	.st3{fill:#D7D0EE;}
	.st4{opacity:0.15;fill:#16143B;enable-background:new    ;}
	.st5{opacity:0.15;enable-background:new    ;}
</style>
<path class="st0" d="M442.4,429.4c-81.1,0-275-14.5-356.7-42.2c-3.9-1.3-6-5.6-4.7-9.5s5.6-6,9.5-4.7
	c80.2,27.2,271.7,41.4,351.9,41.4c4.1,0,7.5,3.4,7.5,7.5S446.6,429.4,442.4,429.4z"/>
<path class="st1" d="M91.9,333.4c-40.9,0-76.4-26.3-88.4-65.4c-4.9-15.9-1.9-33.5,8-46.9s25.8-21.4,42.5-21.4h28.1
	c10.4,0,19.2-7.8,20.4-18.2l5.7-49.6C116.7,56.6,180.6-0.3,256.5,0c75.8,0.3,139,58.4,147.6,133.7l5.5,47.8
	c1.2,10.3,9.9,18.2,20.4,18.2h28c16.7,0,32.5,8,42.5,21.4c9.9,13.4,12.9,30.9,8,46.9c-12,39.1-47.5,65.4-88.4,65.4H91.9z"/>
<path class="st2" d="M462.7,242.2h-41.2c-27.2,0-50-20.4-53.1-47.4l-6.6-58C355.6,83,310.1,42.4,256,42.4S156.4,83,150.3,136.8
	l-6.6,58c-3.1,27-25.9,47.4-53.1,47.4H49.3c-4.1,0-7.5-3.4-7.5-7.5s3.4-7.5,7.5-7.5h41.2c19.6,0,36-14.7,38.2-34.1l6.6-58
	c7-61.4,58.9-107.6,120.6-107.6s113.6,46.3,120.6,107.6l6.6,58c2.2,19.4,18.7,34.1,38.2,34.1h41.2c4.1,0,7.5,3.4,7.5,7.5
	C470.2,238.8,466.8,242.2,462.7,242.2z"/>
<path class="st1" d="M330.9,512L330.9,512c-39,0-70.6-31.6-70.6-70.6v-42c0-10.6,8.6-19.3,19.3-19.3h102.6
	c10.6,0,19.3,8.6,19.3,19.3v42C401.4,480.4,369.8,512,330.9,512z"/>
<g>
	<g>
		<path class="st3" d="M333.5,232.5c-3.8-2.3-10.8-2.2-16.7-1.6l-14-13.5c1.4-1.1,2.5-2.7,3-4.8c0,0,3-6.7-4.5-15.2
			c0,0-2-8.3,0.5-17.1c2.2-7.8,2.8-19.9-1.2-31.3l16.3-15.6c5.8,0.6,12.9,0.7,16.7-1.6c1-0.5,1.9-1.1,2.7-1.9
			c2.8-2.7,3.7-6.6,2.7-10.1c-0.5-1.6-1.4-3.1-2.7-4.4c-2.3-2.2-5.5-3.2-8.5-2.9c0.3-2.9-0.7-5.9-3.1-8.2c-1.3-1.3-2.9-2.1-4.6-2.6
			c-3.6-1-7.6-0.1-10.5,2.6c-0.8,0.8-1.4,1.7-2,2.6c-2.4,3.6-2.3,10.4-1.7,16.1l-13.1,12.6c-2.5-2.8-5.4-5.4-8.9-7.6
			c-6.8-4.2-14.5-7.8-31.2-8.1c-10.6-0.2-25.9,1.8-37.4,13.3L204.7,123c0.6-5.6,0.7-12.4-1.7-16.1c-0.5-0.9-1.1-1.8-1.9-2.6
			c-2.8-2.7-6.9-3.6-10.5-2.6c-1.7,0.5-3.2,1.3-4.6,2.6c-2.3,2.2-3.3,5.2-3.1,8.2c-3-0.3-6.2,0.7-8.5,3c-1.3,1.3-2.2,2.8-2.7,4.4
			c-1,3.5-0.1,7.3,2.7,10.1c0.8,0.8,1.7,1.4,2.7,1.9c3.8,2.3,10.8,2.2,16.7,1.6l12.8,12.3c-1.1,2.3-2.2,4.8-3,7.5
			c0,0-4.6,15.1,2.5,36.1c0,0,0.7,6.1-3.6,10.5c-3.5,3.5-6.8,14.7,3.9,19l-12.5,12c-5.8-0.6-12.9-0.7-16.7,1.6
			c-1,0.5-1.9,1.1-2.7,1.9c-2.8,2.7-3.7,6.6-2.7,10.1c0.5,1.6,1.4,3.1,2.7,4.4c2.3,2.2,5.5,3.2,8.5,2.9c-0.3,2.9,0.7,5.9,3.1,8.2
			c1.3,1.3,2.9,2.1,4.6,2.6c3.6,1,7.6,0.1,10.5-2.6c0.8-0.8,1.5-1.7,1.9-2.6c2.4-3.6,2.3-10.4,1.7-16l19.4-18.6
			c1.3,2.3,2.8,6.9,3.7,16.3c0,0,0.5,6.7,6.5,5.6c0,0,3.1-0.2,3.6-12.8c0,0,3.5-3.2,3.3,4.4c0,0-0.9,8.8,4.9,8.2
			c0,0,3.3,1.9,4.5-7.7c0,0,0-8.4,3.1-5.3c0,0,0.9,12.3,4.5,13.5c0,0,5.3,1.6,6.2-5.1c0,0,0-10.7,2.9-8.7c0,0,1.1,0.7,1.3,7.2
			c0,0-0.2,6.8,4.4,6.5c0,0,4.7,0,6-10.5c0,0-0.8-11.8,5.3-13.7l21.6,20.8c-0.6,5.6-0.7,12.4,1.7,16.1c0.5,0.9,1.1,1.8,1.9,2.6
			c2.8,2.7,6.9,3.6,10.5,2.6c1.7-0.5,3.2-1.3,4.6-2.6c2.3-2.2,3.4-5.2,3.1-8.2c3,0.3,6.2-0.7,8.5-3c1.3-1.3,2.2-2.8,2.7-4.4
			c1-3.5,0.1-7.4-2.7-10.1C335.4,233.6,334.5,233,333.5,232.5z M226.7,206.8c-2.1-0.4-4-1.1-5.6-2.1c-5.4-3.1-8.6-8.6-7.4-14.1
			c1.5-7.2,9.9-11.7,18.6-10c3.7,0.7,6.7,2.4,9,4.7c3.2,3.1,4.9,7.3,4,11.6C243.8,204,235.5,208.5,226.7,206.8z M258.1,216.4
			c-0.6,0.4-1.4,0.7-2.1,0.7c-1.4,0-2.6-0.8-3.3-2c-0.8,1.2-2,2-3.3,2c-0.8,0-1.5-0.3-2.1-0.7c-1.3-1-2.2-2.8-2.2-4.9
			c0-0.6,0.1-1.2,0.2-1.7c0.7-4.3,7.5-9.8,7.5-9.8s6.7,5.5,7.5,9.8c0.1,0.5,0.2,1.1,0.2,1.7C260.3,213.6,259.4,215.5,258.1,216.4z
			 M287,202.3c-2.3,2.2-5.3,3.8-8.9,4.5c-2.9,0.6-5.8,0.4-8.4-0.3c-5.1-1.4-9.2-4.9-10.2-9.7v-0.1c-1.1-5.4,1.9-10.8,7.2-13.9
			c1.7-1,3.7-1.8,5.9-2.2c8.7-1.7,17.1,2.8,18.6,10C292.1,194.8,290.4,199.1,287,202.3z"/>
	</g>
</g>
<path class="st4" d="M172.7,25.4c-35,23.6-59.5,61.8-64.6,106.5l-5.7,49.6c-1.2,10.3-9.9,18.2-20.4,18.2H54
	c-16.7,0-32.5,8-42.5,21.4C1.6,234.5-1.4,252,3.5,268c12,39.1,47.5,65.4,88.4,65.4h142.7C170.4,289.5,156.3,109.9,172.7,25.4z"/>
<path class="st5" d="M294.9,380.2h-15.4c-10.6,0-19.3,8.6-19.3,19.3v42c0,39,31.6,70.6,70.6,70.6l0,0c0.6,0,1.1,0,1.7,0
	C296.2,488.4,294.3,415.6,294.9,380.2z"/>
</svg>
