<?xml version="1.0" encoding="utf-8"?>
<!-- Generator: Adobe Illustrator 25.1.0, SVG Export Plug-In . SVG Version: 6.00 Build 0)  -->
<svg version="1.1" id="Layer_1" xmlns="http://www.w3.org/2000/svg" xmlns:xlink="http://www.w3.org/1999/xlink" x="0px" y="0px"
	 viewBox="0 0 512 512" style="enable-background:new 0 0 512 512;" xml:space="preserve">
<style type="text/css">
	.st0{fill:#477B9E;}
	.st1{fill:#3C697C;}
	.st2{fill:#FC9630;}
	.st3{fill:#393F4A;}
	.st4{fill:#F8E9AF;}
	.st5{fill:#CAB191;}
	.st6{fill:#EA8932;}
	.st7{fill:#FFE17D;}
</style>
<g id="Page-1">
	<g id="_x30_14---Pirate-Hat" transform="translate(0 -1)">
		<path id="Shape" class="st0" d="M441.4,292.3l42.9-42.9l10-10c8.3-8,14.1-18.2,16.6-29.5c5.4-26.4-8.6-52.9-33.4-63.5
			c-32.7-12.7-66.9-20.9-101.8-24.3c-6.9-14.6-12.7-29.7-17.4-45.1C344.8,31.9,303.2,1,256,1s-88.8,30.9-102.3,76.1
			c-4.7,15.5-10.5,30.5-17.4,45.1c-34.9,3.4-69.1,11.6-101.8,24.3C9.7,157-4.2,183.5,1.1,209.9c2.5,11.2,8.3,21.5,16.6,29.5l10,10
			l42.9,42.9H441.4z"/>
		<path id="Shape_1_" class="st1" d="M510.9,209.9c-2.5,11.2-8.3,21.5-16.6,29.5l-10,10l-12-8.9c-41.3-31-74.5-71.6-96.6-118.3
			c34.9,3.4,69.1,11.6,101.8,24.3C502.3,157,516.2,183.5,510.9,209.9L510.9,209.9z"/>
		<path id="Shape_2_" class="st1" d="M136.3,122.2c-7.5,16-16.4,31.3-26.5,45.7c-19.4,27.8-43,52.3-70.1,72.6l-12,8.9l-10-10
			c-8.3-8-14.1-18.2-16.6-29.5c-5.4-26.4,8.6-52.9,33.4-63.5C67.2,133.8,101.4,125.6,136.3,122.2L136.3,122.2z"/>
		<path id="Shape_3_" class="st2" d="M441.4,292.3l-43,43c-5.7,5.6-14.4,6.7-21.3,2.7c-37.3-19.6-79-29.3-121.1-28.1
			c-42.1-1.2-83.8,8.5-121.1,28.1c-6.9,4-15.6,2.8-21.3-2.7l-43-43c55.3-35.3,119.8-53.7,185.4-53C321.6,238.6,386,257,441.4,292.3z
			"/>
		<path id="Shape_4_" class="st3" d="M450.2,327.6c0,5.9-2,11.7-5.7,16.3c-3.6,4.7-8.7,8-14.4,9.4c-2.1,0.5-4.2,0.8-6.4,0.8
			c-11.7,0-22-7.6-25.3-18.8l33-33C442.6,305.6,450.3,315.9,450.2,327.6L450.2,327.6z"/>
		<path id="Shape_5_" class="st4" d="M494.2,508.2c-1.1,2.1-3,3.7-5.3,4.4s-4.8,0.4-6.8-0.8c-16-9.2-52.3-33.5-63.5-70.9
			c-10.1-33.5,2.6-68.9,11.5-87.7c5.7-1.4,10.8-4.7,14.4-9.4c15.9,9.1,52.4,33.5,63.8,71.2C519.5,452.4,502.6,491.9,494.2,508.2
			L494.2,508.2z"/>
		<path id="Shape_6_" class="st5" d="M473.9,471.2c-0.7,0-1.4-0.1-2.1-0.2c-2.3-0.6-4.2-2-5.5-4c-1.2-2-1.6-4.4-1-6.7
			c3.1-10.6,3.3-21.8,0.7-32.4c-3.8-10.7-10.4-20.3-19.1-27.7c-2.3-2.2-3.3-5.4-2.6-8.5c0.7-3.1,3-5.5,6-6.5c3-0.9,6.3-0.2,8.6,2
			c11,9.5,19.2,21.7,23.9,35.5c3.6,13.7,3.4,28.1-0.4,41.7C481.6,468.4,478,471.2,473.9,471.2L473.9,471.2z"/>
		<path id="Shape_10_" class="st6" d="M211.8,277.5c0.4,2.3-0.2,4.7-1.6,6.6c-1.4,1.9-3.5,3.2-5.8,3.6
			c-35.9,5.7-70.4,18.2-101.7,36.8L90,311.6c0.5-0.5,1.1-1,1.7-1.3c33.8-20.3,71.1-33.9,110-40.2C206.4,269.4,211,272.7,211.8,277.5
			z"/>
		<path id="Shape_11_" class="st6" d="M422,311.6l-12.8,12.8c-31.2-18.6-65.8-31.1-101.7-36.8c-3.1-0.5-5.7-2.6-6.9-5.6
			c-1.1-3-0.6-6.3,1.4-8.7s5.2-3.7,8.3-3.1c38.9,6.3,76.2,19.9,110,40.2C421,310.7,421.5,311.1,422,311.6L422,311.6z"/>
		<path id="Shape_12_" class="st6" d="M273.7,283.9h-0.5c-11.5-0.6-23-0.6-34.4,0c-3.2,0.2-6.2-1.4-7.9-4c-1.7-2.7-1.9-6-0.4-8.8
			c1.4-2.8,4.3-4.6,7.4-4.8c12.1-0.6,24.1-0.6,36.2,0c4.9,0.1,8.7,4.2,8.6,9.1S278.5,284.1,273.7,283.9L273.7,283.9z"/>
	</g>
</g>
<g>
	<g>
		<path class="st7" d="M216.1,134.7c0.8,2.6,1.6,5.2,2,7.9c0.2,1.1,0.8,9,1.2,13.4c0.1,1.7,1.4,3,3.1,3.3l5.8,0.9
			c0.8,0.1,1.5,0.8,1.7,1.6l0.8,3.9c0.3,1.7,1.8,2.9,3.6,2.9h45.3c1.7,0,3.2-1.2,3.6-2.8l0.9-4c0.2-0.8,0.9-1.4,1.7-1.5l7.1-1
			c1.7-0.2,3-1.7,3.1-3.4c0.3-4.5,0.8-12.7,0.9-13.8c0.4-2.6,1.2-5.3,1.9-7.8c1.1-3.6,2.2-7.2,2.2-11.1c0-24.4-19.6-44.3-43.6-44.3
			s-43.6,19.9-43.6,44.3C213.8,127.2,214.9,131,216.1,134.7z M263.1,132.5c0.3-6.9,6.5-8.7,13.5-8.4c7,0.3,12.1,2.5,11.8,9.4
			c-0.3,6.9-6.2,12.3-13.2,12.1C268.2,145.2,262.8,139.4,263.1,132.5z M258.9,146.1l4.5,6.7c0.4,0.6,0.5,1.4,0.1,2l-0.7,1.3
			c-0.3,0.7-1,1.1-1.8,1.1h-3.9h-3.9c-0.8,0-1.5-0.4-1.8-1.1l-0.7-1.3c-0.3-0.6-0.3-1.4,0.1-2l4.5-6.7
			C256.4,144.9,258.1,144.9,258.9,146.1z M238.1,124.1c7-0.3,13.3,1.5,13.5,8.4c0.3,6.9-5.2,12.8-12.2,13.1s-12.9-5.1-13.2-12.1
			C226.1,126.5,231.2,124.3,238.1,124.1z"/>
		<path class="st7" d="M314.2,72.5c0.5-3.3-0.5-6.8-3.1-9.4C307,59,300.3,59,296,63c-4.4,4.2-4.5,11.2-0.2,15.4l-4,3.9
			c-1.6,1.6-1.6,4.1,0,5.7l6.7,6.7c1.6,1.6,4.1,1.6,5.7,0l4-3.9c4.3,4.3,11.3,4.2,15.5-0.2c4-4.2,4-10.9-0.2-15
			C321.1,73,317.6,72,314.2,72.5z"/>
		<path class="st7" d="M206.8,90.8l4,3.9c1.6,1.6,4.1,1.6,5.7,0l6.7-6.7c1.6-1.6,1.6-4.1,0-5.7l-4-3.9c4.3-4.3,4.2-11.2-0.2-15.4
			c-4.2-4-11-3.9-15.2,0.2c-2.6,2.6-3.6,6.1-3.1,9.4c-3.3-0.5-6.9,0.5-9.5,3c-4.1,4.1-4.2,10.8-0.2,15C195.5,95,202.5,95,206.8,90.8
			z"/>
		<path class="st7" d="M323.9,165.6c-4.2-4.4-11.2-4.5-15.5-0.2l-4-3.9c-1.6-1.6-4.1-1.6-5.7,0l-6.7,6.7c-1.6,1.6-1.6,4.1,0,5.7
			l4,3.9c-4.3,4.3-4.2,11.2,0.2,15.4c4.2,4,11,3.9,15.2-0.2c2.6-2.6,3.6-6.1,3.1-9.4c3.3,0.5,6.9-0.5,9.5-3
			C327.8,176.5,327.9,169.8,323.9,165.6z"/>
		<path class="st7" d="M200.9,183.7c-0.5,3.3,0.5,6.8,3.1,9.4c4.1,4.1,10.9,4.2,15.2,0.2c4.4-4.2,4.5-11.2,0.2-15.4l4-3.9
			c1.6-1.6,1.6-4.1,0-5.7l-6.7-6.7c-1.6-1.6-4.1-1.6-5.7,0l-4,3.9c-4.3-4.3-11.3-4.2-15.5,0.2c-4,4.2-4,10.9,0.2,15
			C194,183.2,197.5,184.2,200.9,183.7z"/>
	</g>
</g>
</svg>
