<svg height="512" viewBox="0 0 64 64" width="512" xmlns="http://www.w3.org/2000/svg"><g id="_17-pirate_treasure" data-name="17-pirate treasure"><path d="m64 13-8 12h-18-5-23l-8-12h7 21 6 21z" fill="#1e1613"/><path d="m56 25h-46l-8 8h24v-3a2.006 2.006 0 0 1 2-2h10a2.006 2.006 0 0 1 2 2v3h24z" fill="#1e1613"/><path d="m46 33h-6v-3a2.006 2.006 0 0 0 -2-2h-10a2.006 2.006 0 0 0 -2 2v3h-12a2.08 2.08 0 0 1 -.5-.07 2.08 2.08 0 0 1 -.5.07h-4a2 2 0 0 1 0-4h2a2 2 0 0 1 0-4h5a2 2 0 0 1 0-4h2a2 2 0 0 1 0-4h4a2 2 0 0 1 0 4h2a2.053 2.053 0 0 1 1.12.34 1.991 1.991 0 0 1 1.88-1.34h2a2 2 0 0 1 0-4h4a2 2 0 0 1 0 4h8a2.006 2.006 0 0 1 2 2h.28a1.968 1.968 0 0 1 1.72-1h8a2 2 0 0 1 0 4h6a2 2 0 0 1 0 4 2 2 0 0 1 0 4z" fill="#ffc052"/><path d="m56.75 48 .42-4.99.41-5.01.42-5h6l-2.46 24.6a6.007 6.007 0 0 1 -5.97 5.4h-45.14a6.007 6.007 0 0 1 -5.97-5.4l-2.46-24.6h6l.42 5 .33 4.02.66 7.91.36 4.32a3 3 0 0 0 2.99 2.75h40.48a3 3 0 0 0 2.99-2.75l.1-1.22z" fill="#5b5a61"/><path d="m56.75 10c-.65-3.7-2.5-5.09-3.69-5.63a1.767 1.767 0 0 1 -1.04-1.37 1.942 1.942 0 0 1 -.02-.24 1.763 1.763 0 0 1 1.76-1.76h.24a9.212 9.212 0 0 1 7.06 3.38 13.118 13.118 0 0 1 2.94 8.62h-7a16.577 16.577 0 0 0 -.25-3z" fill="#a8a5b3"/><path d="m58 33-.42 5h-17.58v-5h6 5 3z" fill="#c0baba"/><path d="m57 13h-21v-6c4 0 10 0 13.88.01a4.594 4.594 0 0 1 1.12.07c.35.09.65.31.62.55-.02.17-.2.32-.39.44-.67.44-1.58.69-2.31 1.09-.15.08-.31.2-.24.33a.5.5 0 0 0 .26.14 7.42 7.42 0 0 0 1.84.23c2.76.12 3.2.14 5.97.14a16.577 16.577 0 0 1 .25 3z" fill="#d69250"/><path d="m53.06 4.37c1.19.54 3.04 1.93 3.69 5.63-2.77 0-3.21-.02-5.97-.14a7.42 7.42 0 0 1 -1.84-.23.5.5 0 0 1 -.26-.14c-.07-.13.09-.25.24-.33.73-.4 1.64-.65 2.31-1.09.19-.12.37-.27.39-.44.03-.24-.27-.46-.62-.55a4.594 4.594 0 0 0 -1.12-.07c-3.88-.01-9.88-.01-13.88-.01v-4h16.02a1.767 1.767 0 0 0 1.04 1.37z" fill="#9b6244"/><path d="m40 38v2a2.006 2.006 0 0 1 -2 2h-10a2.006 2.006 0 0 1 -2-2v-10a2.006 2.006 0 0 1 2-2h10a2.006 2.006 0 0 1 2 2zm-3 1v-8h-8v8z" fill="#545359"/><path d="m29 31h8v8h-8z" fill="#443a38"/><path d="m30 6v-3h6v4 6h-6z" fill="#c0baba"/><path d="m30 6v7h-21a16.577 16.577 0 0 1 .25-3c2.88 0 5.21-.03 7.97-.18a5.968 5.968 0 0 0 1.84-.31.524.524 0 0 0 .26-.2c.07-.16-.09-.32-.24-.43-.73-.54-1.64-.87-2.31-1.45a.957.957 0 0 1 -.39-.59.816.816 0 0 1 .62-.74 3.471 3.471 0 0 1 1.12-.09c3.56-.01 8.07-.01 11.88-.01z" fill="#9b6244"/><path d="m30 3v3c-3.81 0-8.32 0-11.88.01a3.471 3.471 0 0 0 -1.12.09.816.816 0 0 0 -.62.74.957.957 0 0 0 .39.59c.67.58 1.58.91 2.31 1.45.15.11.31.27.24.43a.524.524 0 0 1 -.26.2 5.968 5.968 0 0 1 -1.84.31c-2.76.15-5.09.18-7.97.18.65-3.7 2.5-5.09 3.69-5.63a1.767 1.767 0 0 0 1.04-1.37z" fill="#d69250"/><path d="m26 33v5h-17.58l-.42-5h1 4 1 8z" fill="#c0baba"/><path d="m57.58 38-.41 5.01-.17-.01a71.128 71.128 0 0 0 -13.18 1.23 1.008 1.008 0 0 0 -.72.36 1.345 1.345 0 0 0 -.08.72 3.867 3.867 0 0 1 -1.81 2.99 15.8 15.8 0 0 1 -7.42 2.49 41.634 41.634 0 0 0 -7.8 1.28c-2.51.82-5.04 2.47-5.99 4.93h-7.24a3 3 0 0 1 -2.99-2.75l-.36-4.32a58.63 58.63 0 0 0 12.31-3.19 7.03 7.03 0 0 0 2.1-1.15.425.425 0 0 0 .17-.23c.05-.21-.18-.37-.37-.46-4.52-2.1-9.93-1.22-14.62-2.9l-.25.02-.33-4.02h17.58v2a2.006 2.006 0 0 0 2 2h10a2.006 2.006 0 0 0 2-2v-2z" fill="#d69250"/><path d="m57.17 43.01-.42 4.99a22.54 22.54 0 0 0 -11.05 2.45c-.01.01-.03.02-.04.03a1.188 1.188 0 0 0 .47 2.25h.02c3.53.27 6.28.27 9.81.27l.37.03-.1 1.22a3 3 0 0 1 -2.99 2.75h-33.24c.95-2.46 3.48-4.11 5.99-4.93a41.634 41.634 0 0 1 7.8-1.28 15.8 15.8 0 0 0 7.42-2.49 3.867 3.867 0 0 0 1.81-2.99 1.345 1.345 0 0 1 .08-.72 1.008 1.008 0 0 1 .72-.36 71.128 71.128 0 0 1 13.18-1.23z" fill="#9b6244"/><path d="m56.75 48-.42 5.03-.37-.03c-3.53 0-6.28 0-9.81-.27h-.02a1.188 1.188 0 0 1 -.47-2.25c.01-.01.03-.02.04-.03a22.54 22.54 0 0 1 11.05-2.45z" fill="#d69250"/><path d="m23.62 44.9c.19.09.42.25.37.46a.425.425 0 0 1 -.17.23 7.03 7.03 0 0 1 -2.1 1.15 58.63 58.63 0 0 1 -12.31 3.19l-.66-7.91.25-.02c4.69 1.68 10.1.8 14.62 2.9z" fill="#9b6244"/><path d="m9.25 10a16.577 16.577 0 0 0 -.25 3h-7a13.118 13.118 0 0 1 2.94-8.62 9.212 9.212 0 0 1 7.06-3.38h.24a1.763 1.763 0 0 1 1.76 1.76 1.942 1.942 0 0 1 -.02.24 1.767 1.767 0 0 1 -1.04 1.37c-1.19.54-3.04 1.93-3.69 5.63z" fill="#a8a5b3"/><path d="m59 29a2 2 0 0 0 0-4h-6a2 2 0 0 0 0-4h-8a1.968 1.968 0 0 0 -1.72 1h-.28a2.006 2.006 0 0 0 -2-2h-8a2 2 0 0 0 0-4h-4a2 2 0 0 0 0 4h-2a1.991 1.991 0 0 0 -1.88 1.34 2.053 2.053 0 0 0 -1.12-.34h-2a2 2 0 0 0 0-4h-4a2 2 0 0 0 0 4h-2a2 2 0 0 0 0 4h-5a2 2 0 0 0 0 4h-2a2 2 0 0 0 0 4h.279a1.975 1.975 0 0 1 -.279-1 2.006 2.006 0 0 1 2-2h5a2 2 0 0 1 0-4h2a2 2 0 0 1 0-4h4a2 2 0 0 1 0 4h2a2.053 2.053 0 0 1 1.12.34 1.991 1.991 0 0 1 1.88-1.34h2a2 2 0 0 1 0-4h4a2 2 0 0 1 0 4h8a2.006 2.006 0 0 1 2 2h.28a1.968 1.968 0 0 1 1.72-1h8a2 2 0 0 1 0 4h6a2 2 0 0 1 1.929 1.5 1.966 1.966 0 0 0 .071-.5 2.006 2.006 0 0 0 -2-2z" fill="#ffdf75"/><path d="m28 40h10v-10h-10zm1-9h8v8h-8z" fill="#323236"/><path d="m42 34v-1h-2v5h17.58l.168-2h-13.748a2 2 0 0 1 -2-2z" fill="#7d7b85"/><path d="m22 36h-13.748l.168 2h17.58v-5h-2v1a2 2 0 0 1 -2 2z" fill="#7d7b85"/><path d="m6.229 37.751 1.389 16.664a5 5 0 0 0 4.982 4.585h40.8a5 5 0 0 0 4.983-4.585l1.389-16.664a3 3 0 0 1 2.988-2.751h1.04l.2-2h-6l-.42 5-.41 5.01-.42 4.99-.42 5.03-.1 1.22a3 3 0 0 1 -2.99 2.75h-40.48a3 3 0 0 1 -2.99-2.75l-.36-4.32-.66-7.91-.33-4.02-.42-5h-6l.2 2h1.04a3 3 0 0 1 2.989 2.751z" fill="#3c3b40"/><g fill="#bd722a"><path d="m11.173 42.6-.173-2.6h15v-2h-17.58l.33 4.02.25-.02a16.688 16.688 0 0 0 2.173.6z"/><path d="m13.871 55a2 2 0 0 1 -2-1.867l-.241-3.6c-.744.139-1.491.281-2.225.4l.36 4.32a3 3 0 0 0 2.995 2.747h7.24a6.562 6.562 0 0 1 1.264-2z"/><path d="m28 44h10a2 2 0 0 0 2-2v-2a2.006 2.006 0 0 1 -2 2h-10a2.006 2.006 0 0 1 -2-2v2a2 2 0 0 0 2 2z"/><path d="m40 38v2h15l-.2 3.051c.731-.023 1.465-.051 2.2-.051l.17.01.41-5.01z"/></g><path d="m54.133 53-.009.135a2 2 0 0 1 -2 1.867h-30.86a6.562 6.562 0 0 0 -1.264 1.998h33.24a3 3 0 0 0 2.99-2.75l.1-1.22-.37-.03z" fill="#734832"/><path d="m54.8 43.051-.336 5.035c.747-.05 1.506-.082 2.289-.086l.42-4.99-.173-.01c-.735 0-1.469.028-2.2.051z" fill="#734832"/><path d="m54.133 53h1.827l.37.03.42-5.03c-.783 0-1.542.036-2.289.086z" fill="#bd722a"/><path d="m11.173 42.6a16.688 16.688 0 0 1 -2.173-.6l-.25.02.66 7.91c.734-.118 1.481-.26 2.225-.4z" fill="#734832"/><path d="m54.707 9.991a14.349 14.349 0 0 1 .293 3.009h2a16.577 16.577 0 0 0 -.25-3c-.864 0-1.492 0-2.043-.009z" fill="#bd722a"/><path d="m51.276 5.288c1.159.457 2.778 1.648 3.431 4.7.551.012 1.179.012 2.043.012-.65-3.7-2.5-5.09-3.69-5.63a1.767 1.767 0 0 1 -1.04-1.37h-2.02v.427a2 2 0 0 0 1.276 1.861z" fill="#734832"/><path d="m9.25 10a16.577 16.577 0 0 0 -.25 3h2a14.336 14.336 0 0 1 .293-3.007c-.658.007-1.333.007-2.043.007z" fill="#734832"/><path d="m14.724 5.288a2 2 0 0 0 1.276-1.861v-.427h-2.02a1.767 1.767 0 0 1 -1.04 1.37c-1.19.54-3.04 1.93-3.69 5.63.71 0 1.385 0 2.043-.007.653-3.056 2.272-4.248 3.431-4.705z" fill="#bd722a"/><path d="m61 11a2 2 0 0 1 -2-2 6 6 0 0 0 -6-6 .99.99 0 0 1 -.936-.684 1.719 1.719 0 0 0 -.064.444 1.942 1.942 0 0 0 .02.24 1.767 1.767 0 0 0 1.04 1.37c1.19.54 3.04 1.93 3.69 5.63a16.577 16.577 0 0 1 .25 3h7a15.477 15.477 0 0 0 -.139-2z" fill="#7d7b85"/><path d="m13 3a6 6 0 0 0 -6 6 2 2 0 0 1 -2 2h-2.861a15.477 15.477 0 0 0 -.139 2h7a16.577 16.577 0 0 1 .25-3c.65-3.7 2.5-5.09 3.69-5.63a1.767 1.767 0 0 0 1.04-1.37 1.942 1.942 0 0 0 .02-.24 1.719 1.719 0 0 0 -.064-.444.99.99 0 0 1 -.936.684z" fill="#7d7b85"/><rect fill="#ffaf3f" height="4" rx="1" width="2" x="32" y="33"/><rect fill="#67666e" height="4" rx="2" width="26" x="15" y="59"/><rect fill="#67666e" height="4" rx="2" width="6" x="44" y="59"/><circle cx="61" cy="36" fill="#ffaf3f" r="1"/><circle cx="57" cy="59" fill="#ffaf3f" r="1"/><circle cx="9" cy="59" fill="#ffaf3f" r="1"/><circle cx="5" cy="36" fill="#ffaf3f" r="1"/><rect fill="#d4cbcc" height="3" rx="1.5" width="8" x="49" y="33"/><rect fill="#d4cbcc" height="3" rx="1.5" width="8" x="9" y="33"/><rect fill="#d4cbcc" height="3" rx="1.5" width="5" x="43" y="33"/><rect fill="#d4cbcc" height="3" rx="1.5" width="5" x="18" y="33"/><path d="m30 3h6v3h-6z" fill="#e0d7d8"/></g></svg>